<?xml version="1.0" standalone="no"?>
<!DOCTYPE svg PUBLIC "-//W3C//DTD SVG 20010904//EN"
 "http://www.w3.org/TR/2001/REC-SVG-20010904/DTD/svg10.dtd">
<svg version="1.0" xmlns="http://www.w3.org/2000/svg"
 width="2000.000000pt" height="2000.000000pt" viewBox="0 0 2000.000000 2000.000000"
 preserveAspectRatio="xMidYMid meet">

<g transform="translate(0.000000,2000.000000) scale(0.100000,-0.100000)"
fill="#000000" stroke="none">
<path d="M10075 18574 c-243 -29 -351 -49 -502 -93 -98 -28 -101 -28 -194 -15
-52 7 -105 10 -119 7 -66 -15 -330 -112 -455 -167 -406 -180 -638 -366 -841
-676 -51 -78 -284 -475 -284 -484 0 -1 -48 -90 -107 -197 -60 -107 -146 -266
-193 -353 -83 -155 -88 -162 -230 -311 -331 -346 -451 -521 -501 -732 -16 -66
-20 -107 -16 -165 7 -106 -10 -129 -213 -288 -178 -139 -249 -218 -316 -352
-79 -157 -97 -381 -41 -530 72 -198 226 -335 440 -393 l67 -18 -6 -41 c-3 -23
-21 -73 -40 -112 -84 -176 -409 -396 -834 -564 -153 -61 -199 -86 -224 -125
-23 -35 -12 -44 27 -21 106 64 201 106 208 95 5 -9 -10 -20 -48 -35 -194 -79
-575 -443 -793 -758 -40 -58 -76 -106 -80 -106 -12 0 -120 -141 -145 -189 -35
-69 -37 -116 -5 -124 18 -5 20 -14 21 -84 2 -97 1 -103 -18 -121 -19 -19 -13
-84 22 -255 14 -64 25 -127 25 -140 0 -35 -125 -236 -223 -359 -116 -146 -141
-199 -141 -298 0 -85 17 -146 74 -262 118 -240 257 -417 599 -759 257 -256
336 -319 506 -404 l122 -61 -33 -64 c-18 -36 -36 -72 -39 -80 -4 -8 -26 -58
-50 -110 -101 -223 -129 -398 -94 -595 14 -82 83 -372 126 -532 l35 -131 -138
-154 c-313 -349 -433 -522 -464 -672 -6 -31 -16 -56 -23 -56 -8 0 -7 -4 1 -12
7 -7 12 -26 12 -43 0 -16 5 -46 10 -65 6 -19 11 -68 11 -109 l-1 -74 -155
-333 c-207 -444 -236 -533 -236 -714 0 -161 46 -285 143 -382 60 -60 161 -115
253 -138 143 -35 432 -47 560 -21 27 5 52 7 54 5 8 -8 -17 -134 -44 -229 -55
-191 -130 -341 -253 -510 -36 -49 -79 -117 -96 -150 -56 -111 -39 -224 55
-362 62 -91 172 -215 244 -274 63 -52 75 -67 85 -107 25 -101 18 -198 -30
-396 -26 -106 -21 -145 20 -180 l30 -25 -34 -128 c-19 -70 -53 -200 -76 -288
-57 -222 -120 -424 -207 -669 -108 -305 -136 -440 -148 -726 -3 -74 -8 -166
-10 -205 -2 -38 -7 -179 -11 -312 l-7 -243 61 0 62 0 1 48 c0 26 2 54 3 62 2
8 7 80 11 160 4 80 8 147 10 150 1 3 6 63 9 135 13 265 25 393 47 525 25 148
45 220 131 459 38 108 87 264 109 346 49 188 106 507 108 608 1 18 5 26 12 21
11 -6 8 -62 -5 -99 -4 -11 5 2 20 30 22 40 25 54 17 75 -10 26 -9 26 416 -81
649 -163 941 -210 1316 -210 265 0 485 32 726 105 63 19 116 33 118 30 2 -2
-3 -12 -11 -21 -8 -10 -33 -52 -55 -93 -22 -41 -50 -93 -61 -115 -12 -22 -26
-58 -32 -80 -21 -86 -20 -86 -169 14 -79 53 -128 92 -120 95 8 3 43 12 79 21
133 33 170 46 170 61 0 8 -1 14 -3 14 -1 0 -95 -13 -207 -30 -338 -49 -513
-63 -770 -63 -381 1 -779 61 -1168 177 -62 18 -115 30 -117 25 -7 -10 -3 -12
105 -53 403 -150 754 -209 1252 -210 l298 -1 245 -194 c135 -107 245 -198 245
-202 0 -4 -31 -54 -69 -111 -37 -57 -76 -119 -86 -138 -24 -48 -44 -70 -60
-64 -18 7 -30 -15 -16 -29 6 -6 11 -21 11 -34 0 -19 5 -23 31 -23 17 0 55 -14
84 -32 52 -31 53 -32 48 -72 -24 -221 -109 -501 -253 -837 -95 -221 -118 -295
-106 -342 6 -24 11 -27 51 -27 l45 0 0 55 c0 60 5 75 105 305 143 333 213 599
209 798 0 28 3 52 6 52 12 0 222 -143 332 -226 106 -81 219 -178 345 -295 118
-111 100 -107 249 -58 71 23 234 72 362 110 129 37 235 69 238 71 2 3 6 47 8
99 5 115 35 231 123 474 68 188 111 282 145 312 20 17 20 17 15 -2 -3 -11 -9
-45 -12 -75 -11 -89 -41 -216 -105 -441 -33 -116 -60 -217 -60 -225 0 -104
217 440 249 626 12 68 18 117 20 163 2 43 26 33 91 -37 33 -35 75 -74 93 -86
l34 -23 -14 -86 c-18 -116 -49 -226 -95 -344 -21 -54 -38 -103 -38 -108 0 -21
21 -6 51 38 42 60 93 190 129 327 16 59 31 110 33 113 3 2 50 -29 106 -69
l101 -73 -5 -60 c-15 -149 -67 -400 -136 -654 -32 -115 -179 -571 -215 -664
-6 -16 -1 -18 42 -15 l48 3 42 130 c23 72 68 220 99 330 32 110 59 201 60 203
2 2 34 -18 71 -44 38 -26 106 -64 152 -85 l82 -39 0 -62 c1 -126 27 -317 53
-393 12 -35 18 -40 48 -43 21 -2 29 1 21 6 -13 8 -32 64 -32 92 0 8 10 -1 21
-20 44 -73 56 -80 132 -80 l70 0 -45 30 c-82 55 -138 152 -183 320 -26 100
-31 140 -16 140 17 0 22 34 6 42 -12 8 -15 35 -15 167 0 161 -20 402 -41 489
-19 77 -57 143 -118 207 -32 33 -63 69 -69 80 -6 11 -19 20 -30 20 -24 0 -271
186 -347 260 -81 79 -115 160 -189 460 -36 143 -85 332 -111 419 -25 88 -44
160 -42 162 1 1 29 -14 62 -35 109 -69 495 -258 605 -298 8 -3 -14 12 -49 32
-160 92 -586 404 -594 435 -3 11 -14 20 -24 20 -37 0 -152 138 -208 250 -44
86 -65 195 -68 339 -2 113 -1 120 41 243 55 167 72 239 72 318 0 91 -21 129
-132 240 -105 105 -137 160 -161 275 -33 152 -10 300 109 700 58 195 235 738
270 830 3 8 1 15 -5 15 -29 0 -216 -438 -371 -874 -58 -164 -69 -186 -79 -168
-15 29 -21 155 -10 227 24 151 105 321 272 573 62 92 125 183 140 204 15 20
24 39 19 42 -9 5 -125 -129 -225 -261 -107 -141 -211 -332 -243 -449 -8 -32
-19 -108 -22 -168 l-7 -110 -53 102 c-87 167 -94 192 -101 397 -6 158 -5 187
11 234 20 63 15 77 -14 41 l-21 -25 8 25 c4 14 23 68 41 120 65 180 87 278 88
375 0 109 -19 162 -119 325 -36 60 -75 134 -86 165 -22 62 -25 171 -8 241 12
46 23 55 33 28 12 -31 16 -8 5 29 -9 33 -7 44 21 95 42 79 165 242 242 320 35
35 153 137 263 227 110 90 225 188 256 218 l57 56 12 -47 c6 -26 29 -74 50
-107 65 -100 73 -128 65 -221 -9 -105 4 -154 51 -192 54 -45 102 -55 309 -61
257 -9 284 -23 335 -175 27 -82 129 -238 174 -265 42 -26 90 -27 115 -2 10 10
28 45 40 76 38 100 34 97 87 75 55 -24 105 -25 145 -4 42 21 59 66 52 140 -9
104 21 127 106 79 59 -34 110 -33 146 2 63 64 61 113 -14 273 -67 140 -86 217
-100 402 -11 147 -27 183 -121 266 -46 41 -97 104 -150 181 -44 65 -102 139
-129 164 l-49 46 51 11 c212 43 339 55 562 54 185 -2 379 -28 550 -74 61 -16
122 -30 137 -30 19 0 31 -9 47 -35 21 -37 55 -47 79 -23 16 16 15 65 -2 71 -8
3 -16 30 -21 74 -7 67 -51 313 -120 671 -19 101 -42 229 -50 285 -9 56 -22
127 -31 157 -48 169 -306 262 -731 264 l-193 1 0 46 c0 58 -27 219 -47 284 -9
28 -26 71 -39 97 -13 26 -24 50 -24 53 0 24 517 -61 583 -97 10 -5 21 -8 23
-6 6 7 -156 95 -206 113 -25 9 -67 21 -95 26 -62 12 -239 12 -283 0 l-32 -10
-41 82 c-23 45 -59 110 -80 146 -22 35 -37 67 -33 70 11 11 197 6 282 -8 l83
-14 209 -161 c613 -474 812 -618 830 -600 19 19 -76 101 -617 532 -94 75 -173
144 -176 153 -2 8 -28 29 -58 46 -49 28 -327 243 -339 263 -3 4 -27 23 -55 42
-27 19 -86 59 -130 90 -266 185 -469 228 -920 194 -125 -9 -283 -13 -420 -10
-237 4 -233 4 -526 40 -108 13 -208 24 -222 24 -75 0 16 -44 177 -85 l89 -22
-46 -7 c-132 -20 -299 -166 -468 -406 -148 -212 -229 -285 -444 -400 -210
-112 -322 -184 -574 -363 -294 -210 -503 -393 -592 -519 -76 -108 -145 -173
-245 -233 -56 -33 -159 -112 -250 -190 -220 -191 -280 -228 -408 -255 -151
-31 -320 -4 -491 78 -144 70 -284 180 -485 382 -281 280 -488 545 -599 768
-98 196 -93 295 25 451 92 123 134 189 174 274 33 70 39 78 44 57 4 -14 22
-104 41 -200 19 -96 42 -197 51 -224 20 -58 93 -140 118 -130 9 3 16 11 16 18
0 6 -45 175 -101 376 -55 201 -104 399 -109 440 -15 126 -32 341 -27 346 2 2
49 -51 103 -118 54 -68 123 -149 153 -180 51 -55 91 -74 91 -45 0 31 -118 177
-292 364 -40 42 -58 69 -58 87 0 14 4 26 9 26 5 0 11 10 13 23 3 19 8 22 40
19 22 -2 60 6 95 20 32 13 249 139 483 280 630 379 844 480 1213 574 214 54
506 99 767 119 47 3 105 8 130 11 25 3 127 6 227 9 100 2 186 6 191 9 14 8
320 21 482 19 205 -2 281 -16 859 -156 l175 -43 17 -80 c9 -44 24 -97 33 -118
9 -21 16 -40 16 -42 0 -3 -21 6 -47 19 -57 29 -304 83 -683 151 -274 49 -630
76 -860 64 -120 -6 -334 -39 -348 -53 -15 -15 22 -16 190 -5 196 12 362 8 603
-16 253 -24 820 -124 1024 -180 52 -14 105 -24 117 -21 18 3 26 -3 35 -26 7
-16 41 -72 75 -123 l62 -93 -56 26 c-203 93 -449 167 -654 197 -200 30 -420
33 -392 6 5 -5 77 -13 159 -20 164 -12 342 -45 496 -91 107 -31 312 -109 306
-116 -2 -2 -49 4 -103 13 -143 23 -363 19 -379 -6 -3 -4 53 -8 123 -8 133 0
229 -14 407 -58 55 -14 101 -26 102 -27 0 -1 -89 -3 -200 -4 -152 -1 -224 -6
-291 -20 -137 -28 -120 -40 47 -35 160 5 392 -16 544 -49 106 -23 289 -81 330
-104 l28 -16 -30 6 c-101 18 -368 47 -532 57 -435 27 -730 -34 -1318 -272
-154 -63 -205 -87 -205 -100 0 -12 101 17 377 110 454 153 596 184 858 185
182 0 232 -3 495 -29 80 -8 179 -18 220 -21 113 -9 315 -44 389 -67 36 -11
124 -46 195 -78 72 -31 165 -67 206 -78 82 -23 306 -122 470 -208 109 -58 254
-150 373 -236 38 -27 71 -47 73 -45 3 3 -19 26 -48 53 -43 38 -45 42 -13 19
106 -75 256 -219 355 -340 87 -107 291 -418 364 -555 25 -47 76 -120 113 -161
80 -90 132 -174 174 -284 93 -240 105 -429 55 -870 -14 -121 -28 -267 -30
-325 -3 -58 -8 -157 -11 -220 -8 -154 -25 -274 -84 -573 -66 -336 -76 -430
-76 -702 1 -322 14 -387 163 -810 68 -194 97 -318 107 -457 6 -80 5 -98 -6
-98 -10 0 -11 -2 -2 -8 9 -5 8 -22 -3 -67 -7 -33 -14 -77 -14 -97 0 -21 -4
-38 -9 -38 -14 0 -123 146 -229 309 -99 151 -131 179 -92 82 58 -148 155 -302
315 -500 212 -262 267 -346 310 -476 58 -176 43 -274 -95 -609 -63 -155 -80
-236 -81 -384 0 -71 5 -158 11 -194 12 -77 38 -144 50 -132 5 5 16 68 24 139
22 191 48 249 124 282 32 13 44 11 225 -42 214 -63 264 -87 299 -142 21 -35
23 -48 23 -173 -1 -247 -30 -311 -229 -519 -203 -213 -306 -364 -391 -576 -36
-90 -85 -262 -85 -300 0 -11 27 40 61 113 130 286 266 487 387 575 36 26 60
36 105 40 50 5 58 3 68 -15 6 -11 9 -21 7 -22 -2 -1 -24 -15 -51 -30 -61 -35
-181 -154 -234 -231 -37 -55 -93 -157 -93 -170 0 -19 24 6 73 77 78 115 138
181 236 259 l85 67 73 -78 c93 -99 154 -140 289 -196 60 -25 120 -55 133 -67
39 -36 61 -98 67 -194 8 -117 -4 -156 -72 -240 -112 -136 -133 -243 -97 -498
12 -84 17 -192 17 -356 l1 -235 -70 56 c-169 134 -409 219 -660 235 -55 3
-121 8 -147 11 -29 4 -48 2 -48 -4 0 -13 107 -39 215 -52 179 -21 366 -85 507
-173 93 -58 196 -164 237 -244 17 -35 31 -64 31 -66 0 -2 -75 14 -167 34 -132
30 -534 116 -725 155 -16 3 -28 1 -28 -4 0 -11 335 -107 650 -186 332 -83 395
-112 600 -275 56 -45 126 -97 156 -116 34 -22 60 -48 69 -68 13 -29 14 -30 15
-8 l0 24 26 -24 c54 -51 84 -132 97 -264 3 -27 11 -89 18 -137 l12 -88 30 0
c30 0 30 0 24 48 -4 26 -9 92 -12 147 -11 178 -34 267 -85 332 -12 15 -51 48
-87 74 -36 26 -95 79 -130 118 -35 39 -114 110 -176 159 -205 163 -247 229
-273 428 -8 66 -29 198 -46 294 -42 240 -47 375 -18 471 26 87 37 105 117 193
73 79 94 135 95 244 1 131 -22 200 -84 258 -39 37 -65 51 -175 94 -172 66
-305 181 -383 332 l-42 79 29 36 c130 164 161 271 150 521 -12 262 -17 267
-359 372 -176 55 -252 83 -250 92 7 28 85 151 144 225 34 43 123 141 198 218
147 151 178 191 234 302 49 98 79 191 121 374 45 198 159 541 245 739 130 297
198 556 187 709 -9 135 -45 204 -229 442 -57 75 -130 172 -161 217 l-57 80 34
56 c63 105 71 206 23 309 -13 29 -63 101 -110 161 -87 111 -126 180 -191 339
-119 289 -185 380 -411 569 -116 97 -172 177 -238 338 -25 60 -37 109 -42 165
-16 190 -73 368 -151 472 -13 17 -24 34 -24 37 0 3 20 -4 43 -14 78 -35 176
-52 257 -46 252 19 291 23 302 34 9 9 7 12 -12 12 -83 1 -191 12 -241 25 -225
59 -424 240 -495 452 -26 79 -39 93 -30 34 9 -61 52 -165 93 -227 68 -104 202
-216 311 -260 59 -23 52 -32 -17 -23 -113 16 -231 68 -323 143 -63 52 -133
140 -123 157 4 6 -9 34 -28 62 -20 29 -48 86 -63 127 -45 128 -81 187 -153
258 -38 37 -93 99 -121 137 -29 39 -83 104 -119 145 -37 41 -93 108 -126 148
-146 182 -363 300 -797 431 -250 75 -528 204 -734 339 -93 60 -113 78 -109 93
5 16 1 19 -22 19 -21 0 -45 16 -91 60 -35 33 -66 60 -68 60 -3 0 7 -17 22 -37
l28 -38 -35 33 c-73 68 -169 290 -203 472 -22 115 -20 125 12 49 16 -36 50
-99 76 -140 56 -86 212 -245 306 -311 87 -61 301 -191 306 -185 2 2 -60 54
-139 115 -365 283 -506 487 -547 790 -12 87 -11 200 5 507 1 33 6 125 10 205
4 80 9 152 10 161 2 8 6 91 10 185 4 93 8 189 10 214 3 28 1 39 -4 30 -5 -8
-25 -179 -45 -380 -21 -201 -39 -372 -41 -380 -2 -8 -7 -53 -11 -100 -3 -47
-8 -87 -10 -90 -1 -4 -6 -134 -9 -290 -5 -236 -4 -303 10 -393 25 -170 77
-313 161 -445 l34 -53 -32 17 c-46 24 -126 102 -155 151 -70 120 -101 307
-107 653 -2 124 -4 226 -5 226 -1 1 -8 5 -17 8 -10 4 -13 2 -7 -7 4 -6 8 -136
8 -287 1 -248 7 -330 32 -440 l5 -25 -16 22 c-23 31 -73 160 -90 231 -12 53
-12 63 0 73 20 16 17 34 -8 51 -21 14 -22 22 -22 159 -1 178 7 253 40 377 16
57 26 119 25 149 -1 28 7 100 18 160 20 106 43 254 56 363 13 100 8 292 -10
388 -9 50 -18 92 -19 92 0 0 -1 -100 -2 -223 0 -157 -6 -254 -18 -332 -20
-132 -76 -418 -83 -425 -3 -3 -21 13 -40 35 l-35 40 5 110 c3 61 17 179 32
264 14 84 24 155 22 157 -9 9 -85 -365 -90 -441 l-2 -40 -25 70 c-21 59 -25
87 -24 175 1 123 18 218 115 637 78 338 100 448 88 436 -4 -4 -32 -91 -62
-193 -30 -102 -76 -257 -102 -345 -26 -88 -60 -209 -75 -270 l-27 -110 -8 69
c-4 38 -5 130 -2 205 6 161 35 286 96 416 22 47 36 85 31 85 -18 0 -108 -205
-130 -291 -39 -162 -44 -326 -15 -528 9 -57 13 -106 11 -108 -8 -8 -64 153
-74 217 -37 215 -15 363 123 849 119 423 145 565 141 783 l-2 137 68 68 68 67
0 -34 c0 -20 -16 -89 -35 -155 -34 -114 -43 -171 -80 -496 -16 -148 -17 -165
-10 -157 9 9 43 195 60 328 9 74 34 204 56 288 21 84 39 175 39 202 l0 50 196
172 c108 95 216 190 240 211 24 21 44 35 44 32 0 -4 -15 -33 -34 -64 -94 -156
-160 -377 -173 -575 -4 -75 -3 -107 4 -103 6 4 14 37 18 74 20 201 70 380 151
553 30 63 53 119 50 126 -2 6 43 58 100 115 l104 104 -51 -104 c-122 -248
-197 -512 -216 -766 -8 -101 -9 -187 -3 -510 l3 -180 13 130 c50 503 125 883
243 1225 98 287 104 298 182 375 l71 70 -30 -60 c-46 -92 -72 -182 -79 -267
-7 -97 8 -103 27 -10 28 143 89 285 177 409 38 55 234 233 256 233 4 0 -1 -17
-12 -37 -10 -21 -28 -58 -39 -83 -11 -25 -36 -80 -56 -124 -51 -112 -76 -199
-76 -265 l1 -56 23 90 c13 50 55 162 93 250 39 88 78 182 88 209 17 43 28 55
99 101 202 131 478 236 686 259 l55 7 -30 -17 c-149 -84 -292 -248 -490 -564
-229 -366 -406 -560 -660 -727 -92 -61 -104 -74 -30 -33 135 73 287 194 426
336 119 123 186 207 333 421 190 277 308 409 449 507 109 74 163 89 330 94 96
3 147 1 147 -6 0 -17 -87 -113 -158 -175 -37 -33 -119 -94 -183 -138 -139 -94
-234 -180 -294 -264 -25 -34 -45 -65 -45 -68 0 -3 28 23 63 57 41 41 105 87
192 138 230 134 326 217 422 365 33 50 61 83 71 83 29 0 324 -48 397 -65 190
-43 329 -108 400 -185 l30 -33 -50 35 c-87 62 -286 163 -271 140 3 -6 66 -53
139 -105 152 -109 167 -124 261 -276 38 -61 71 -111 72 -111 4 0 -54 157 -76
207 -10 24 -30 58 -45 77 -14 19 -22 37 -16 40 14 9 85 -76 185 -219 49 -71
118 -165 154 -209 35 -45 58 -75 51 -68 -7 6 -17 12 -22 12 -6 0 10 -21 35
-47 66 -71 205 -249 254 -324 125 -193 198 -442 199 -679 0 -198 -11 -282 -85
-610 -61 -274 -62 -277 -61 -380 2 -153 28 -246 84 -298 34 -32 40 -16 15 38
-40 90 -58 187 -58 315 0 117 3 134 64 381 78 311 97 416 101 554 4 123 -6
209 -41 339 -52 199 -170 406 -307 538 l-74 73 -7 72 c-19 186 -108 410 -237
593 -249 350 -760 714 -1202 854 -53 17 -106 31 -116 31 -11 0 -29 14 -41 30
-24 33 -108 93 -185 132 -87 44 -212 78 -309 85 -111 7 -191 -7 -272 -47 -76
-37 -98 -37 -208 0 -113 38 -281 75 -421 93 -100 13 -479 20 -560 11z m284
-89 c-3 -2 -45 -16 -94 -30 -99 -29 -235 -89 -235 -103 0 -6 64 12 143 38 241
83 371 101 533 76 126 -19 333 -70 526 -130 80 -25 154 -46 163 -46 34 0 -6
31 -104 80 l-95 47 74 14 c43 8 129 13 200 12 148 -2 243 -23 364 -82 134 -65
134 -67 -1 -63 -152 5 -233 -9 -423 -70 -218 -70 -266 -72 -470 -20 -187 48
-250 56 -337 42 -153 -25 -227 -98 -312 -312 -66 -167 -161 -282 -416 -504
-44 -38 -160 -145 -257 -237 -98 -93 -178 -165 -178 -162 0 4 25 82 56 173 62
189 184 445 291 615 37 60 125 186 196 280 70 94 127 176 127 181 0 34 -234
-238 -352 -409 -181 -262 -299 -529 -352 -796 l-24 -119 -59 -63 c-121 -130
-278 -340 -368 -492 -29 -50 -70 -111 -91 -136 l-37 -44 8 70 c10 95 58 326
85 405 29 88 87 200 132 261 21 27 38 54 38 60 0 20 -79 -51 -126 -114 -111
-146 -167 -341 -178 -613 -2 -50 -6 -96 -9 -101 -10 -15 -67 -37 -75 -29 -15
16 -14 252 2 338 53 280 212 570 456 830 45 49 80 92 78 98 -4 14 -148 -110
-248 -216 -294 -311 -436 -727 -355 -1046 7 -29 1 -32 -104 -53 l-34 -7 6 41
c3 22 3 59 0 82 -8 57 -23 29 -23 -43 0 -68 -7 -88 -29 -88 -16 0 -16 7 1 113
35 215 9 170 -42 -73 -11 -53 -14 -56 -66 -82 -30 -15 -54 -25 -54 -24 0 2 9
48 20 101 11 53 20 105 20 114 -1 38 -21 -19 -45 -129 -15 -63 -34 -129 -42
-146 -13 -26 -15 -59 -10 -205 6 -183 23 -291 75 -463 22 -77 33 -96 74 -137
50 -50 152 -116 226 -144 31 -13 44 -24 48 -44 4 -14 22 -61 42 -104 l35 -77
-52 -55 c-85 -89 -121 -192 -86 -241 13 -19 12 -23 -12 -45 -14 -13 -51 -60
-82 -104 l-56 -80 -6 215 c-6 238 -15 277 -84 380 -41 61 -136 172 -143 166
-2 -3 20 -40 50 -83 31 -43 67 -99 81 -125 52 -93 74 -229 61 -366 l-7 -77
-52 160 c-61 186 -75 220 -122 294 -37 59 -101 131 -116 131 -5 0 9 -20 31
-45 78 -89 111 -169 176 -430 24 -93 55 -199 69 -234 l26 -64 -21 -48 c-30
-72 -36 -74 -109 -37 -35 17 -58 33 -51 36 23 7 12 22 -16 22 -59 0 -174 137
-221 263 -11 31 -30 119 -41 195 -36 240 -78 353 -182 495 -63 84 -85 89 -25
5 115 -162 155 -293 171 -559 10 -150 39 -247 105 -343 26 -38 28 -43 11 -39
-33 9 -120 110 -151 176 -33 71 -53 162 -68 315 -7 65 -18 117 -31 142 -11 22
-22 40 -24 40 -3 0 -13 3 -23 6 -17 5 -17 5 0 -6 36 -23 48 -68 53 -192 9
-211 43 -330 122 -427 21 -25 29 -42 20 -38 -9 3 -36 11 -60 17 -24 7 -69 25
-100 40 -218 108 -331 283 -353 546 -17 206 -34 305 -54 312 -9 3 -11 0 -6 -8
4 -7 11 -115 15 -239 7 -204 11 -234 34 -308 32 -98 86 -183 167 -257 33 -31
57 -56 54 -56 -25 0 -162 95 -218 151 -114 114 -132 176 -142 494 -7 205 -16
288 -40 356 -19 54 -59 113 -91 134 -21 13 -19 9 10 -29 42 -55 71 -132 79
-206 4 -30 9 -152 12 -270 7 -253 17 -324 52 -394 31 -62 139 -169 215 -214
133 -79 302 -131 493 -152 49 -5 108 -23 197 -60 117 -49 127 -55 127 -79 -1
-55 20 -258 30 -288 18 -60 65 -135 110 -174 24 -21 48 -39 53 -39 12 0 -21
-56 -75 -128 -47 -64 -137 -125 -218 -148 -58 -16 -78 -34 -39 -34 33 0 138
38 182 66 62 39 129 113 156 172 21 46 27 53 46 48 110 -32 156 -38 243 -32
51 4 121 15 156 26 123 38 246 142 284 238 l16 44 24 -64 c40 -106 42 -118 39
-202 -7 -146 -78 -276 -195 -354 -126 -84 -224 -102 -421 -78 -68 9 -149 16
-180 16 -30 0 -72 3 -92 6 l-36 6 61 31 c74 36 162 123 196 191 25 51 40 136
24 136 -5 0 -21 -26 -35 -57 -53 -116 -149 -195 -305 -254 -83 -31 -96 -33
-252 -37 l-164 -4 57 72 c105 134 164 296 152 415 -13 130 -114 266 -272 368
-40 25 -84 62 -100 82 -48 63 -242 208 -309 231 -11 4 13 -16 53 -45 117 -82
162 -121 223 -198 120 -151 170 -302 160 -488 l-2 -40 -18 55 c-22 70 -43 110
-70 134 -12 11 -36 47 -54 80 -95 179 -398 392 -742 521 -55 20 -116 45 -136
55 -46 24 -99 84 -99 113 0 12 -5 29 -10 37 -8 12 -10 12 -10 -5 0 -98 55
-148 270 -245 365 -164 601 -335 679 -492 41 -80 50 -91 67 -77 22 18 29 -16
11 -54 -8 -17 -22 -50 -32 -72 -30 -73 -79 -109 -190 -139 -33 -8 -144 -36
-247 -61 -203 -49 -453 -127 -581 -180 -44 -19 -82 -33 -84 -31 -4 4 115 108
193 169 53 41 124 116 124 130 0 3 16 28 35 57 38 56 55 106 55 162 0 40 -20
65 -21 26 0 -15 -21 -41 -63 -77 -121 -104 -253 -179 -427 -244 -91 -35 -509
-150 -516 -143 -2 1 21 16 49 31 116 63 297 193 369 265 89 89 135 172 145
262 l7 60 41 -6 c23 -3 59 -9 81 -11 51 -7 496 -13 513 -7 6 2 12 10 12 17 0
16 -38 22 -200 30 -137 7 -287 36 -387 75 -196 76 -354 239 -394 406 -6 27
-15 58 -20 69 -15 37 -10 -47 6 -110 36 -138 138 -265 278 -347 65 -38 73 -46
63 -61 -12 -15 -17 -15 -72 2 -260 79 -418 294 -418 571 -1 244 93 409 353
625 75 62 150 132 168 155 l32 43 11 -27 c5 -15 10 -30 10 -33 0 -3 -77 -85
-171 -183 -245 -257 -309 -345 -309 -431 0 -39 31 -89 56 -89 16 0 19 16 3 25
-25 16 -30 58 -14 110 22 70 78 140 280 353 l170 179 17 -26 c10 -14 18 -29
18 -32 0 -4 -27 -40 -60 -82 -33 -41 -60 -78 -60 -81 0 -22 33 5 79 66 l54 70
35 -36 36 -35 -21 -23 c-34 -36 -83 -149 -83 -190 0 -58 16 -45 39 30 20 65
73 162 88 162 5 -1 19 -7 33 -15 49 -28 51 -14 3 23 -107 85 -165 214 -164
368 1 132 19 205 87 338 92 180 223 334 739 866 452 466 692 769 810 1024 72
155 101 273 40 160 -163 -301 -232 -406 -405 -613 -90 -107 -610 -645 -597
-616 3 6 100 174 217 375 418 718 464 789 609 943 140 146 338 283 559 384
102 46 523 213 536 212 6 0 0 -5 -13 -10 -36 -14 -22 -18 34 -9 28 4 51 7 52
6 1 -1 -42 -21 -96 -44 -255 -111 -557 -319 -767 -530 -106 -106 -125 -141
-33 -60 223 196 402 319 619 427 234 116 479 200 715 245 151 28 174 27 70 -3
-197 -58 -410 -160 -535 -256 -138 -106 -116 -120 32 -20 222 152 425 232 730
290 109 21 270 33 257 20z m1579 -277 c46 -5 82 -12 80 -13 -2 -2 -48 -6 -103
-9 -172 -11 -238 -19 -288 -32 -25 -7 -11 -23 16 -19 12 2 87 9 167 14 201 15
374 2 466 -34 120 -47 451 -218 389 -201 -450 123 -846 143 -1180 60 -355 -90
-733 -316 -1155 -692 -167 -149 -465 -451 -670 -677 -300 -333 -471 -489 -643
-590 -68 -39 -51 -42 24 -4 170 85 319 217 649 574 731 792 1208 1169 1677
1325 378 125 676 115 1333 -44 67 -17 123 -37 157 -58 373 -232 618 -538 708
-882 13 -50 27 -111 31 -136 6 -41 5 -43 -10 -31 -9 8 -40 59 -68 115 -66 127
-229 372 -302 453 -102 112 -242 202 -416 266 -457 169 -1082 182 -1490 30
-193 -72 -430 -203 -626 -348 -216 -160 -420 -349 -756 -702 -302 -317 -461
-465 -726 -677 -103 -82 -217 -177 -253 -211 -63 -59 -69 -62 -128 -68 -80 -7
-158 -45 -220 -107 -60 -60 -92 -127 -99 -208 -2 -34 -9 -65 -14 -68 -19 -12
-58 7 -73 36 -36 69 -83 253 -125 489 l-32 173 22 23 c36 38 116 66 260 91
276 49 317 77 489 348 216 341 487 634 921 1000 85 71 187 162 225 201 112
112 147 172 229 396 9 26 31 68 48 93 74 112 202 129 453 61 122 -34 154 -39
250 -39 93 0 124 5 200 29 203 63 254 76 335 83 90 8 115 7 248 -10z m224
-556 c4 -4 -57 -6 -135 -4 -492 11 -871 -121 -1252 -438 -55 -45 -262 -246
-460 -445 -224 -225 -428 -420 -540 -515 -99 -85 -220 -190 -268 -234 -65 -58
-91 -76 -97 -67 -11 20 -33 2 -26 -21 3 -15 -13 -40 -67 -97 -40 -42 -88 -95
-107 -119 l-35 -43 -93 3 -92 3 92 62 c310 206 664 528 1058 959 343 375 488
510 700 652 305 206 563 290 945 310 145 8 366 4 377 -6z m76 -9 c-10 -2 -28
-2 -40 0 -13 2 -5 4 17 4 22 1 32 -1 23 -4z m-2852 -1900 c-9 -85 -14 -119
-32 -213 -22 -105 -23 -109 -36 -87 -7 14 -5 37 7 85 10 37 19 104 20 148 2
57 8 90 20 108 10 14 19 26 22 26 3 0 2 -30 -1 -67z m-52 -40 c-8 -61 -35
-197 -41 -206 -2 -4 -10 -3 -17 2 -9 7 -12 36 -11 85 2 67 5 78 34 115 18 23
34 41 36 41 2 0 1 -17 -1 -37z m-88 -139 c-4 -14 -12 -21 -19 -18 -17 6 -15
32 4 62 l14 23 3 -22 c2 -11 1 -32 -2 -45z m-306 35 c-45 -18 -128 -79 -163
-119 -50 -58 -86 -141 -115 -259 -14 -59 -27 -107 -28 -109 -1 -2 -18 7 -38
19 -25 15 -35 26 -31 38 3 9 7 57 9 107 4 110 25 163 89 221 46 42 121 73 179
73 15 0 36 9 46 19 9 11 30 19 47 20 30 0 30 0 5 -10z m225 -114 c59 -29 145
-107 145 -132 0 -31 -144 -593 -152 -593 -20 0 -93 88 -118 143 -44 96 -45
222 -3 269 17 19 12 35 -6 23 -6 -3 -19 -21 -28 -38 -18 -35 -24 -168 -10
-222 7 -29 7 -29 -9 -10 -9 11 -30 49 -48 85 -26 55 -31 76 -31 140 0 87 17
124 78 174 36 28 45 31 113 31 41 0 74 3 74 7 0 4 -19 12 -42 19 -56 15 -132
-2 -186 -41 -71 -51 -112 -179 -93 -286 21 -113 111 -232 210 -280 20 -9 43
-21 51 -26 8 -5 23 -11 33 -15 13 -4 17 -12 13 -27 -11 -40 -35 -191 -41 -265
-4 -40 -11 -68 -15 -61 -4 7 -5 21 -3 31 4 14 -16 41 -70 96 l-76 78 41 0 c78
0 104 86 38 124 -23 12 -31 11 -81 -13 -31 -14 -59 -26 -62 -26 -7 0 -67 85
-67 95 0 3 13 11 30 16 35 13 74 70 65 98 -13 43 -95 51 -134 12 -18 -18 -19
-18 -30 7 -18 39 -41 143 -41 188 0 48 40 192 72 262 32 67 105 137 164 156
68 22 152 14 219 -19z m-615 -365 c43 -37 31 -37 -40 0 -51 27 -53 29 -25 29
19 0 43 -11 65 -29z m328 -257 c6 -19 -28 -28 -49 -14 -11 6 -19 7 -19 1 0 -5
9 -14 20 -20 20 -11 19 -30 -1 -30 -6 0 -8 4 -5 9 3 5 -1 14 -9 21 -18 15 -19
36 -2 44 21 8 60 2 65 -11z m-59 -210 c0 -5 -29 -27 -64 -49 -60 -39 -65 -40
-71 -22 -11 36 7 89 43 129 l36 40 29 -45 c15 -25 28 -49 27 -53z m201 22 c15
-18 9 -49 -10 -52 -27 -5 -43 13 -36 41 7 29 27 34 46 11z m-365 -73 c-1 -66
-8 -92 -25 -92 -5 0 -12 16 -16 35 -4 25 0 47 16 80 12 25 23 45 23 45 1 0 2
-30 2 -68z m270 51 c-2 -10 -4 -20 -4 -22 -1 -3 -7 1 -13 7 -10 10 -10 15 2
22 19 12 19 13 15 -7z m-76 -46 c-2 -1 -23 -16 -47 -32 -60 -40 -134 -124
-183 -206 -135 -226 -118 -491 40 -649 31 -31 78 -66 105 -79 141 -65 303 -39
413 67 l41 40 -11 -31 c-6 -18 -40 -62 -76 -98 -87 -87 -134 -104 -286 -104
-91 1 -120 5 -167 23 -67 27 -148 96 -184 159 -60 100 -84 253 -64 389 11 69
17 85 61 143 48 64 56 87 22 60 -16 -12 -16 -11 1 16 44 69 109 145 163 192
67 58 165 125 172 118 2 -3 2 -6 0 -8z m51 -62 c7 -8 10 -22 6 -30 -9 -26 -69
-55 -111 -55 l-40 0 52 50 c54 53 73 60 93 35z m55 -66 c10 -15 -24 -49 -70
-70 -50 -23 -143 -26 -151 -4 -11 29 13 44 51 32 27 -8 43 -7 79 7 24 9 50 24
56 32 15 17 26 18 35 3z m72 -71 c66 -71 80 -100 87 -173 11 -123 38 -225 82
-313 l43 -85 -34 -47 c-67 -91 -163 -136 -272 -127 -35 2 -66 7 -69 10 -3 3
10 27 29 54 99 137 147 280 154 456 7 149 -11 179 -20 35 -6 -97 -38 -225 -81
-322 -23 -52 -110 -191 -126 -201 -4 -2 -17 3 -29 12 l-23 15 30 32 c91 96
153 265 154 417 0 129 -26 165 -30 42 -6 -151 -48 -278 -134 -406 l-45 -68
-36 40 c-73 81 -113 208 -101 324 7 71 43 187 75 241 18 30 25 35 43 29 11 -4
50 -8 86 -7 66 0 131 24 159 58 18 22 23 21 58 -16z m-588 -649 c55 -145 155
-231 305 -264 56 -12 58 -13 21 -14 -22 0 -69 6 -104 14 -186 44 -273 160
-275 365 -1 52 3 118 9 145 9 47 9 43 16 -70 5 -85 13 -137 28 -176z m-463 34
c135 -135 148 -302 41 -497 l-32 -59 -162 -1 c-158 -1 -161 -1 -130 16 18 9
44 17 58 18 43 0 138 49 185 95 40 37 44 46 44 88 0 34 -4 47 -14 47 -20 0
-26 23 -26 92 0 78 -23 166 -65 250 l-33 68 42 -32 c22 -18 64 -56 92 -85z
m-1271 46 c33 -10 69 -19 79 -19 11 0 16 -3 13 -6 -7 -7 -185 14 -200 23 -14
9 16 34 32 27 9 -3 43 -15 76 -25z m291 -316 c-54 -108 -148 -186 -335 -278
-218 -109 -419 -153 -761 -170 l-125 -6 45 21 c53 26 162 55 400 109 244 56
368 94 489 152 113 54 205 115 266 178 21 23 40 41 42 41 2 0 -8 -21 -21 -47z
m846 -42 l12 -73 -29 -24 c-59 -47 -253 -135 -415 -188 -209 -69 -388 -115
-649 -166 -287 -56 -276 -55 -211 -20 43 23 69 29 120 30 74 2 152 20 157 36
2 7 -13 15 -34 19 -38 7 -37 8 62 42 134 45 319 93 560 143 192 40 288 72 328
108 29 26 54 82 62 135 10 63 21 49 37 -42z m1569 -3 c7 -13 22 -35 34 -50 20
-24 22 -32 14 -74 -5 -26 -13 -50 -18 -53 -4 -4 -11 -22 -15 -42 -14 -78 -92
-158 -219 -225 -78 -41 -111 -52 -182 -60 -58 -7 -65 -11 -45 -25 8 -6 45 -8
82 -6 75 5 174 47 262 111 28 19 51 34 52 33 0 -1 -2 -59 -5 -128 l-6 -127
-290 73 c-282 71 -288 73 -220 74 182 3 350 95 447 245 43 67 77 166 80 232 1
49 11 56 29 22z m-1493 -307 c17 -10 -13 -48 -65 -83 -35 -24 -49 -26 -183
-32 -349 -15 -622 -46 -910 -103 -184 -36 -185 -36 -300 -25 -63 7 -171 26
-240 43 -69 16 -136 28 -150 25 -25 -5 -189 22 -202 33 -4 3 39 6 95 6 138 0
273 12 387 35 83 17 96 18 110 5 9 -8 24 -15 33 -15 23 0 21 -13 -3 -35 -12
-11 -18 -25 -15 -36 4 -12 0 -18 -15 -21 -35 -5 -18 -23 20 -21 60 3 407 63
575 99 153 32 412 105 444 124 19 11 402 12 419 1z m-1318 -46 c-19 -20 -33
-25 -69 -25 l-46 1 65 23 c36 13 67 24 69 25 3 1 -6 -10 -19 -24z m2177 -141
c-3 -3 -12 -4 -19 -1 -8 3 -5 6 6 6 11 1 17 -2 13 -5z m-2802 -54 c61 -11 176
-30 258 -42 81 -13 147 -25 147 -28 0 -3 -55 -24 -123 -48 -116 -40 -127 -42
-237 -42 -63 0 -169 7 -234 15 -66 8 -122 13 -125 10 -24 -25 163 -73 302 -77
20 -1 37 -4 37 -8 0 -4 -37 -26 -82 -50 -155 -80 -272 -152 -613 -378 -187
-123 -358 -237 -380 -252 -59 -40 -116 -67 -159 -76 l-39 -7 19 32 c11 18 65
77 122 132 97 93 120 129 77 121 -17 -3 -17 -2 -5 15 126 164 317 359 491 505
243 202 301 221 544 178z m472 -46 c-3 -3 -12 -4 -19 -1 -8 3 -5 6 6 6 11 1
17 -2 13 -5z m3838 -992 c-7 -8 -35 7 -35 18 0 6 7 6 20 -2 10 -7 17 -14 15
-16z m-1057 -428 c8 -2 -13 -26 -50 -56 -60 -49 -150 -135 -583 -558 -104
-102 -390 -379 -634 -615 -244 -237 -469 -462 -501 -501 -73 -92 -101 -149
-107 -227 l-6 -62 -161 -165 c-214 -219 -1164 -1214 -1188 -1246 -11 -13 -23
-24 -28 -24 -14 0 -31 126 -36 283 -6 173 4 220 70 318 39 58 35 84 -8 55 -37
-23 -83 -110 -100 -186 -33 -143 -39 -393 -13 -491 l14 -56 -140 -152 c-77
-83 -144 -148 -148 -144 -11 11 -72 249 -110 423 -40 190 -50 381 -24 496 24
110 85 276 147 402 29 59 53 109 54 110 2 2 27 -1 56 -7 83 -18 242 -14 328 8
41 10 99 19 128 20 104 2 232 47 440 157 238 125 378 222 526 364 109 105 163
173 255 320 97 155 202 291 264 343 72 60 241 178 305 212 32 18 52 35 52 46
0 23 49 63 124 101 187 94 322 210 469 403 174 229 245 289 421 355 103 40
134 62 106 80 -14 9 45 5 78 -6z m1237 -17 c73 -16 182 -53 189 -65 2 -4 -33
-8 -78 -9 -82 -3 -226 -27 -258 -44 -10 -6 -18 -15 -18 -21 0 -7 30 -8 102 -3
160 11 274 8 336 -10 87 -26 196 -87 311 -175 l105 -80 -90 5 c-49 3 -126 8
-171 11 l-82 6 -60 74 c-57 69 -91 92 -91 61 0 -7 16 -43 36 -80 33 -63 34
-67 14 -67 -43 0 -249 -75 -359 -131 -64 -32 -154 -88 -201 -123 -99 -75 -216
-191 -202 -200 5 -3 39 18 75 48 185 152 411 267 644 329 l93 24 24 -41 c28
-48 126 -243 126 -251 0 -3 -42 -5 -94 -5 -235 0 -524 -129 -720 -321 -92 -91
-97 -120 -5 -35 188 174 398 272 665 310 183 26 161 31 195 -49 46 -109 45
-105 6 -105 -140 0 -407 -98 -542 -199 -27 -21 -63 -45 -80 -54 -16 -9 -25
-16 -20 -17 6 0 48 23 95 51 167 102 289 147 479 179 63 11 115 19 116 17 0
-1 17 -27 37 -57 47 -71 56 -93 66 -162 l9 -57 -46 -6 c-109 -14 -295 -48
-411 -76 -235 -58 -593 -187 -585 -212 17 -51 109 -373 130 -453 54 -209 96
-584 65 -584 -6 0 -49 -17 -95 -39 -257 -120 -417 -307 -441 -516 l-7 -55
-116 -102 c-145 -128 -391 -358 -538 -505 l-113 -112 0 72 c0 48 -7 85 -19
112 -20 46 -73 95 -101 95 -28 0 -73 130 -84 243 -6 63 12 125 68 247 52 112
58 125 70 183 10 41 -9 32 -22 -11 -7 -21 -37 -81 -68 -132 -72 -119 -85 -150
-99 -229 -22 -126 15 -272 122 -488 l56 -112 -17 -73 c-26 -109 -24 -107 -54
-62 -15 21 -59 82 -97 134 -116 156 -175 259 -243 427 -40 97 -102 313 -102
354 0 10 -4 19 -10 19 -14 0 -12 -97 4 -182 45 -230 178 -488 380 -739 47 -59
86 -112 86 -119 0 -7 -11 -44 -25 -82 -46 -129 -43 -252 10 -371 13 -29 48
-95 79 -147 134 -226 141 -324 42 -624 -29 -89 -57 -177 -62 -196 l-10 -35
-47 60 c-58 74 -97 147 -182 345 -37 85 -125 277 -196 427 -138 290 -163 362
-173 508 -17 232 -56 317 -187 404 -76 51 -139 74 -324 121 -254 65 -504 96
-785 99 -123 1 -178 -2 -215 -14 -27 -8 -54 -15 -58 -15 -11 0 73 96 372 425
638 702 689 761 662 788 -16 16 -155 -128 -596 -613 -739 -813 -1002 -1094
-1207 -1286 -233 -219 -290 -293 -391 -513 -27 -58 -52 -110 -57 -115 -11 -11
-141 29 -210 65 -30 16 -86 56 -124 89 -38 33 -78 60 -87 60 -26 0 -42 36 -35
76 12 63 85 189 170 294 96 119 169 199 487 536 124 131 329 352 455 489 278
304 1162 1279 1196 1319 l25 29 19 -36 c24 -45 185 -221 238 -259 42 -30 76
-37 76 -14 0 15 -153 171 -215 220 -38 30 -74 94 -75 134 0 31 15 28 29 -6 7
-16 60 -78 119 -138 76 -78 118 -113 144 -121 20 -6 39 -9 42 -6 14 14 -41 81
-137 168 -126 113 -146 139 -129 166 17 27 15 39 -8 39 -20 0 -55 -52 -43 -64
4 -3 1 -6 -6 -6 -18 0 -6 45 25 95 14 22 422 436 907 920 485 484 898 899 917
922 l35 41 125 -10 c118 -9 282 -7 570 8 69 4 126 8 128 9 10 9 289 -6 347
-18z m1015 -63 c0 -2 -9 0 -20 6 -11 6 -20 13 -20 16 0 2 9 0 20 -6 11 -6 20
-13 20 -16z m667 -652 c36 -44 77 -124 87 -167 4 -19 -12 1 -44 55 -29 47 -61
100 -72 118 -27 44 -8 41 29 -6z m-4553 -454 c-42 -40 -97 -102 -123 -138 -25
-36 -56 -73 -69 -83 -12 -11 -95 -102 -184 -204 -89 -102 -189 -208 -222 -235
-33 -28 -177 -128 -321 -223 -143 -95 -278 -186 -299 -204 -33 -26 -117 -61
-149 -61 -6 0 19 22 54 49 35 26 108 96 161 154 68 72 125 123 185 163 49 31
119 78 158 103 53 35 86 67 137 136 86 114 178 202 359 341 122 95 375 274
386 274 2 0 -31 -33 -73 -72z m3944 -162 c319 -49 411 -88 458 -190 27 -59 59
-241 100 -561 14 -115 38 -289 53 -385 15 -96 27 -176 25 -178 -1 -2 -24 4
-51 13 -69 23 -304 61 -468 76 -233 20 -523 0 -758 -52 l-99 -21 -67 31 c-37
17 -82 34 -100 37 -18 4 -29 10 -24 14 19 18 331 87 610 135 17 3 34 1 38 -5
9 -14 34 -12 51 4 20 20 142 31 354 31 181 0 187 -1 279 -32 96 -33 121 -32
121 4 0 19 -92 60 -166 75 -70 13 -311 16 -443 5 l-93 -8 33 43 c64 80 171
203 325 370 85 92 154 169 154 171 0 2 -48 45 -107 95 -60 49 -119 102 -133
117 l-25 28 56 -7 c31 -3 96 -18 145 -32 49 -15 97 -27 106 -28 34 -2 20 20
-31 51 -57 34 -144 57 -256 69 -112 11 -443 8 -530 -4 -44 -7 -143 -18 -220
-26 -238 -25 -447 -75 -565 -134 -55 -27 -76 -52 -45 -52 9 0 85 19 168 41
155 42 347 81 347 70 0 -3 -52 -69 -114 -146 -63 -77 -112 -143 -110 -147 3
-4 60 -47 127 -95 199 -143 494 -379 505 -404 2 -4 -23 -10 -55 -14 -129 -15
-340 -66 -480 -115 -103 -37 -168 -54 -215 -57 l-68 -5 -1 34 c0 18 -2 40 -3
48 -2 8 -6 58 -10 110 -20 264 -105 572 -206 744 -22 37 -40 71 -40 75 0 10
273 96 437 137 156 39 327 71 451 83 124 13 419 5 540 -13z m-43 -208 c-8 -36
-54 -159 -64 -170 -4 -4 -48 37 -99 92 l-92 99 52 3 c29 2 88 4 131 6 l79 3
-7 -33z m-375 7 c0 -7 -52 -94 -96 -159 l-38 -58 -26 31 c-41 48 -101 154 -92
163 12 12 252 35 252 23z m256 -202 c-1 -1 -33 -4 -71 -8 -128 -10 -180 -15
-228 -21 l-48 -6 62 99 c34 54 68 109 76 122 l15 24 98 -104 c54 -57 97 -105
96 -106z m314 88 l85 -80 -100 -2 c-55 -1 -122 -2 -148 -3 -40 -2 -47 0 -41
13 4 9 20 55 37 103 l30 87 26 -19 c14 -11 64 -56 111 -99z m-773 -104 c9 -9
14 -20 11 -23 -8 -7 -280 -46 -285 -40 -3 2 35 54 82 115 l87 112 45 -73 c25
-40 52 -81 60 -91z m836 -61 c-21 -24 -101 -115 -178 -202 -77 -88 -163 -187
-190 -221 -27 -34 -51 -61 -52 -59 -1 1 24 101 57 221 32 121 61 237 65 257
l7 37 87 4 c47 1 121 4 164 5 l79 2 -39 -44z m-409 -240 c-38 -146 -70 -266
-73 -266 -8 1 -247 488 -244 497 1 5 35 11 75 15 87 9 302 24 306 22 2 -1 -27
-121 -64 -268z m-264 3 c63 -127 117 -235 119 -241 4 -13 -1 -10 -173 129 -70
57 -185 147 -257 200 -72 54 -126 99 -120 101 13 4 279 40 301 40 10 0 56 -81
130 -229z m1745 -228 c47 -97 94 -150 253 -289 88 -77 138 -147 249 -344 128
-228 187 -317 323 -479 82 -99 105 -149 105 -234 -1 -55 -7 -83 -29 -132 -16
-35 -31 -63 -35 -63 -3 0 -75 105 -159 233 -141 215 -243 349 -255 337 -3 -3
12 -32 34 -65 22 -33 78 -134 124 -225 132 -259 289 -514 430 -695 99 -127
163 -232 186 -304 43 -136 21 -339 -66 -633 -43 -141 -93 -254 -172 -387 -83
-139 -136 -267 -193 -466 -28 -99 -70 -220 -94 -272 -39 -81 -209 -344 -422
-653 -36 -52 -79 -121 -96 -153 -30 -55 -33 -58 -62 -51 -17 3 -33 8 -35 10
-2 2 30 74 72 161 89 187 116 270 124 378 6 90 -17 204 -62 302 -19 41 -21 52
-9 42 16 -13 16 -10 9 36 -24 161 33 311 196 514 32 41 59 79 59 85 -1 23
-168 -165 -212 -240 -66 -109 -91 -183 -92 -271 -1 -39 -2 -71 -3 -70 0 1 -26
37 -57 80 -61 86 -62 88 -24 177 11 24 93 155 183 291 197 295 219 335 219
398 0 65 -32 117 -120 190 -56 48 -80 76 -103 124 -32 64 -51 156 -51 242 0
36 -3 46 -10 35 -5 -8 -8 -62 -6 -120 5 -148 28 -204 119 -295 90 -90 117
-129 117 -172 0 -37 -35 -117 -74 -168 -61 -80 -300 -442 -317 -479 -10 -22
-19 -53 -19 -68 0 -16 -4 -28 -9 -28 -5 0 -29 25 -55 56 l-46 56 0 83 c0 60 7
103 26 165 24 76 26 94 21 194 -7 138 -29 217 -135 487 -127 322 -154 447
-151 704 4 268 38 541 105 821 60 253 82 374 94 519 17 215 19 238 35 380 4
28 10 77 15 110 5 33 12 102 16 153 4 51 9 91 11 89 2 -2 23 -45 48 -96z
m-2197 -357 c144 -48 250 -131 375 -292 44 -58 111 -134 149 -170 92 -89 103
-119 94 -265 -11 -179 18 -318 91 -442 47 -79 54 -126 22 -149 -20 -13 -39
-15 -115 -10 -90 7 -92 6 -108 -18 -12 -19 -16 -45 -14 -101 2 -113 -25 -136
-122 -102 -90 32 -117 17 -150 -80 -11 -32 -25 -64 -31 -71 -17 -20 -53 -17
-84 8 -35 27 -112 185 -120 246 -22 169 -100 222 -329 222 -215 1 -306 22
-350 83 -17 23 -22 48 -26 142 l-5 114 -54 76 c-29 42 -62 101 -72 130 -46
132 -6 322 95 448 77 98 244 199 387 237 114 29 269 27 367 -6z m-3703 -1089
c219 -9 439 -37 640 -80 215 -46 503 -122 537 -142 83 -48 120 -142 133 -338
12 -180 25 -227 158 -565 224 -569 310 -730 413 -780 l47 -23 -24 -20 c-36
-29 -111 -65 -207 -99 -48 -16 -98 -36 -112 -44 l-25 -13 26 -1 c45 0 192 41
268 76 41 19 75 34 77 34 2 0 4 -18 4 -40 0 -46 -10 -53 -125 -90 -141 -46
-170 -72 -142 -127 38 -73 83 -88 199 -67 49 9 90 15 91 13 1 -2 18 -37 37
-78 19 -41 50 -95 68 -120 17 -25 32 -49 32 -53 0 -3 -24 -1 -53 6 -34 8 -80
31 -128 64 -62 44 -87 55 -152 67 -43 8 -81 15 -83 15 -2 0 -22 16 -44 36 -43
39 -80 122 -80 180 0 28 -3 35 -17 32 -15 -3 -18 -15 -17 -73 0 -58 5 -79 29
-124 37 -68 80 -96 175 -116 57 -12 91 -26 140 -60 88 -60 132 -76 209 -78 57
-2 73 -7 113 -35 26 -17 49 -40 53 -51 3 -10 -2 -49 -12 -87 -12 -49 -17 -111
-17 -214 0 -132 2 -152 27 -223 37 -106 78 -166 184 -269 72 -70 93 -96 103
-132 15 -55 12 -78 -46 -291 l-47 -170 -96 -57 c-314 -186 -742 -352 -1216
-473 -265 -67 -434 -102 -810 -165 -425 -72 -429 -73 -486 -61 -64 14 -69 14
-69 -3 0 -7 17 -22 38 -32 48 -24 210 -24 367 0 615 95 998 176 1365 287 283
86 635 235 815 344 40 25 76 45 79 45 3 0 6 -18 6 -41 0 -48 36 -256 50 -295
6 -15 8 -34 5 -43 -10 -34 88 -171 178 -248 20 -18 37 -35 37 -38 0 -16 -76 0
-138 30 -85 40 -169 115 -223 198 -45 69 -62 58 -22 -16 41 -77 146 -178 220
-213 35 -16 63 -32 63 -36 0 -3 -64 -27 -142 -53 -79 -26 -154 -55 -168 -64
-24 -17 -35 -16 -230 8 -117 15 -224 24 -248 20 -38 -5 -46 -3 -59 18 -21 32
-62 134 -63 156 0 9 -4 17 -10 17 -22 0 4 -135 37 -191 17 -28 17 -30 -9 -56
-25 -24 -29 -25 -58 -13 -43 18 -96 83 -115 141 -21 62 -39 65 -33 5 7 -58 49
-129 97 -164 l37 -27 -47 -37 c-34 -27 -49 -33 -52 -23 -3 7 -31 30 -61 50
-66 44 -125 110 -163 182 -30 57 -43 66 -43 31 0 -85 162 -275 239 -281 l21
-1 -23 -24 c-23 -26 -87 -57 -198 -97 l-69 -24 -62 37 c-126 74 -210 190 -195
268 3 16 0 23 -7 21 -19 -7 -11 -108 12 -152 25 -49 104 -126 161 -154 22 -12
41 -25 41 -30 0 -10 -142 -45 -271 -66 -91 -16 -99 -16 -130 1 -91 46 -148
121 -170 224 -12 58 -29 52 -22 -8 9 -85 52 -160 123 -211 l39 -28 -52 -7
c-29 -3 -86 -6 -128 -6 l-77 0 -43 66 c-47 73 -78 152 -79 202 0 39 -20 43
-21 5 -3 -86 20 -161 71 -233 12 -17 19 -33 16 -38 -2 -4 -31 -5 -63 -2 -58 5
-58 5 -90 59 -34 57 -53 125 -53 194 -1 35 -2 39 -12 23 -18 -32 -4 -155 25
-220 l27 -58 -98 7 c-266 17 -540 65 -812 141 -207 58 -613 184 -650 202 -45
22 -47 43 -20 175 26 124 36 278 22 330 -6 20 -9 37 -8 37 2 0 66 -30 142 -67
147 -70 176 -89 291 -194 91 -83 174 -128 245 -134 l53 -5 -51 13 c-76 20
-143 62 -249 157 -52 46 -93 85 -91 87 5 5 157 -27 179 -38 12 -7 40 -26 62
-44 81 -66 151 -89 196 -65 29 16 23 27 -19 34 -27 4 -56 21 -96 56 -78 69
-120 88 -239 111 -168 32 -361 104 -370 138 -2 10 -28 25 -62 36 -67 23 -96
53 -222 235 -177 254 -181 310 -42 505 101 142 192 332 228 475 30 120 35 148
46 267 l7 71 37 7 c80 15 245 89 289 129 52 48 68 74 54 88 -7 7 -24 -4 -54
-37 -48 -53 -75 -69 -133 -80 -22 -3 -78 -18 -125 -31 -128 -38 -269 -56 -425
-56 -369 0 -564 124 -615 392 -13 68 -5 195 18 285 23 88 64 192 167 420 65
146 145 363 145 397 0 9 4 19 9 22 4 3 76 -24 160 -59 83 -36 162 -67 176 -71
14 -3 25 -7 25 -9 0 -1 -30 -69 -66 -150 -212 -478 -279 -782 -204 -929 48
-94 166 -177 302 -212 89 -23 262 -15 340 15 55 21 81 38 197 124 58 44 66 63
19 43 -178 -75 -268 -101 -268 -77 0 26 58 189 105 296 30 66 62 143 73 170
l20 50 12 -30 c7 -16 12 -47 11 -67 -1 -28 6 -45 28 -69 16 -17 34 -29 39 -25
17 10 58 -209 66 -351 4 -68 2 -83 -11 -87 -14 -6 -15 -23 -10 -129 10 -181
54 -515 92 -699 88 -422 268 -608 638 -658 96 -14 181 -8 375 26 121 21 182
26 395 28 203 3 287 9 432 29 99 14 218 29 265 32 170 13 327 64 412 135 41
34 117 153 145 227 16 42 18 78 16 293 -1 135 -6 291 -12 347 -12 112 -37 246
-51 272 -5 9 -19 99 -30 200 -18 166 -28 211 -50 211 -10 0 -28 -42 -25 -60 1
-8 5 -42 9 -75 10 -77 56 -346 63 -360 5 -10 -17 15 -43 50 -14 20 36 -79 62
-122 19 -31 34 -282 28 -478 -5 -163 -15 -241 -40 -301 -42 -100 -200 -207
-404 -272 -213 -68 -398 -92 -755 -99 -154 -3 -329 -11 -390 -18 -157 -19
-374 -13 -450 12 -184 60 -311 159 -403 314 -30 50 -87 226 -111 344 -58 284
-115 647 -106 676 11 33 8 190 -5 275 -14 94 -63 252 -88 285 -12 16 -27 79
-45 194 -15 94 -39 233 -52 310 -14 77 -37 221 -50 320 -14 99 -28 194 -30
210 -2 17 -9 86 -15 155 -6 69 -15 144 -19 167 l-8 41 270 268 269 267 157 2
c116 2 182 -2 256 -16 55 -10 217 -34 360 -54 481 -66 543 -78 624 -120 58
-31 79 -49 124 -108 61 -80 91 -199 117 -477 24 -250 129 -546 263 -745 76
-113 220 -247 247 -230 19 12 9 29 -88 149 -287 352 -348 494 -402 936 -33
264 -74 383 -162 471 -108 108 -217 143 -578 184 -74 8 -148 17 -165 19 -16 3
-57 7 -90 11 -195 21 -509 75 -543 94 -9 5 -3 19 25 50 l38 43 80 -11 c44 -6
175 -22 290 -36 116 -14 220 -28 233 -30 12 -3 22 -1 22 4 0 24 -271 71 -502
87 -54 3 -98 8 -98 11 0 3 33 41 72 85 73 80 73 80 116 75 23 -2 45 -1 47 4 3
4 11 6 18 4 7 -2 75 -6 152 -10z m-525 -309 c0 -2 -7 -7 -16 -10 -8 -3 -12 -2
-9 4 6 10 25 14 25 6z m-662 -693 c-4 -38 10 -313 23 -443 14 -154 36 -307 65
-462 26 -136 26 -139 9 -200 -9 -35 -52 -138 -96 -229 -92 -192 -117 -262
-126 -341 l-6 -58 -42 0 c-190 0 -379 111 -417 245 -27 98 -1 315 63 515 57
181 247 610 282 639 9 7 17 23 17 35 0 35 116 212 188 289 20 20 37 37 39 37
2 0 2 -12 1 -27z m-654 -163 c24 -22 46 -40 49 -40 3 0 32 -17 64 -38 66 -43
114 -65 194 -90 l56 -17 -24 -51 -23 -51 -173 74 c-94 41 -175 80 -179 86 -4
7 -8 32 -8 57 0 25 -4 60 -9 78 -13 43 0 41 53 -8z m3776 -994 c0 -13 3 -43 6
-68 l6 -45 -80 -17 c-71 -15 -84 -16 -115 -3 -63 27 -92 96 -39 98 15 0 68 13
117 29 112 35 105 35 105 6z m818 -2808 c6 -35 13 -81 17 -104 l6 -41 -63 4
c-78 4 -165 18 -283 45 l-90 21 110 32 c119 34 254 82 270 96 18 17 23 9 33
-53z m-682 -128 c341 -57 660 -151 717 -212 23 -25 33 -55 62 -194 19 -90 37
-175 41 -188 5 -20 -2 -27 -48 -53 -29 -17 -82 -62 -118 -100 -107 -113 -173
-262 -225 -508 -14 -66 -39 -179 -57 -251 l-32 -131 -70 -6 c-74 -6 -266 -64
-366 -111 l-55 -26 -80 79 c-211 208 -503 401 -767 508 -122 49 -101 20 32
-47 265 -133 456 -267 656 -462 72 -71 137 -128 143 -128 7 0 64 20 126 45 62
25 155 55 207 66 51 11 114 27 140 35 44 14 48 18 73 81 14 37 46 150 71 252
78 324 131 454 233 564 51 54 113 103 141 109 8 2 46 -88 50 -118 0 -1 -20 -9
-44 -18 -61 -24 -140 -110 -181 -199 -38 -83 -115 -305 -144 -420 -11 -43 -30
-138 -42 -211 l-21 -132 -197 -59 c-108 -32 -255 -75 -328 -95 l-132 -37 -56
63 c-131 149 -461 403 -707 545 -44 25 -79 52 -82 64 -4 14 -8 16 -14 8 -6
-10 -15 -10 -40 -1 -18 7 -32 16 -32 20 0 10 56 102 129 213 87 133 146 237
164 290 9 28 31 93 48 145 17 52 39 111 49 130 10 19 28 68 40 109 18 60 31
84 70 125 27 28 72 63 99 78 l50 28 -63 -79 c-138 -171 -167 -223 -207 -379
-17 -64 -48 -157 -70 -206 -44 -100 -51 -136 -18 -96 36 43 87 154 134 292 39
113 59 153 134 268 119 183 144 227 131 235 -20 12 -9 26 63 72 39 27 75 53
79 58 14 21 130 15 314 -15z m-1099 -593 c120 -87 159 -120 161 -138 3 -24
-56 -133 -71 -131 -18 2 -458 347 -447 350 6 2 51 10 98 17 48 7 90 13 94 14
4 0 78 -50 165 -112z m2601 -795 c46 -88 74 -225 87 -427 3 -49 8 -123 11
-162 4 -59 2 -73 -9 -73 -28 0 -277 129 -277 144 0 7 13 69 29 137 17 68 42
192 56 274 38 219 33 200 54 181 11 -10 32 -43 49 -74z"/>
<path d="M10136 18068 c-124 -169 -339 -488 -327 -488 14 0 280 375 395 558
47 75 18 45 -68 -70z"/>
<path d="M8736 17839 c-79 -73 -149 -176 -241 -354 -142 -274 -221 -379 -354
-474 -62 -43 -41 -39 27 6 77 52 183 161 243 252 27 42 82 139 121 216 86 171
160 287 227 356 28 29 49 54 47 56 -2 3 -34 -24 -70 -58z"/>
<path d="M9425 17783 c-94 -120 -336 -358 -625 -615 -556 -495 -770 -757 -883
-1081 -30 -88 -32 -99 -31 -242 0 -168 17 -250 89 -438 41 -106 58 -127 25
-31 -136 391 -107 659 104 989 134 210 326 416 736 790 352 321 547 526 645
678 35 54 -1 24 -60 -50z"/>
<path d="M8975 17616 c-131 -186 -233 -297 -660 -721 -464 -461 -577 -579
-690 -720 -185 -230 -275 -429 -277 -610 0 -82 23 -168 41 -149 5 5 12 56 15
114 12 182 55 305 169 477 103 156 237 306 572 638 492 490 643 659 796 890
127 193 147 240 34 81z"/>
<path d="M8065 16792 c-86 -48 -230 -150 -310 -220 -134 -118 -341 -354 -424
-481 -63 -97 -99 -214 -84 -272 9 -35 19 -20 30 47 21 121 106 267 248 424
192 212 344 350 500 453 50 32 92 61 94 63 11 10 -27 0 -54 -14z"/>
<path d="M8926 16558 c-33 -77 -47 -257 -16 -208 6 8 10 35 10 60 0 25 7 72
15 105 19 70 13 94 -9 43z"/>
<path d="M7820 15880 c-6 -139 12 -255 59 -376 31 -79 73 -145 83 -128 3 5
-17 69 -44 142 -29 81 -54 170 -63 230 -9 53 -20 115 -24 137 l-9 40 -2 -45z"/>
<path d="M6971 15783 c-83 -104 -135 -193 -167 -289 -23 -69 -26 -90 -22 -174
6 -112 26 -167 90 -236 23 -25 64 -57 90 -70 44 -22 78 -31 78 -19 0 2 -35 39
-79 82 -97 97 -122 153 -122 277 0 125 37 221 152 400 32 51 59 96 59 99 0 20
-24 -1 -79 -70z"/>
<path d="M8020 15295 c0 -5 5 -17 10 -25 5 -8 10 -10 10 -5 0 6 -5 17 -10 25
-5 8 -10 11 -10 5z"/>
<path d="M6407 14423 c24 -154 139 -288 329 -382 51 -25 153 -61 248 -87 353
-98 447 -137 567 -235 67 -55 99 -66 99 -32 0 26 -104 117 -176 155 -106 56
-160 74 -388 134 -239 63 -331 96 -433 160 -117 73 -210 191 -229 292 -9 45
-24 40 -17 -5z"/>
<path d="M8030 13888 c146 -52 228 -166 233 -324 2 -67 12 -75 23 -17 8 42
-10 132 -38 186 -42 83 -146 157 -243 172 -32 5 -27 1 25 -17z"/>
<path d="M7428 13675 c-3 -58 -8 -69 -38 -101 -53 -54 -149 -124 -210 -152
-36 -17 -49 -27 -38 -29 50 -12 251 120 300 196 30 48 38 117 16 139 -21 21
-26 13 -30 -53z"/>
<path d="M6806 13675 c-60 -144 -101 -190 -230 -253 -47 -23 -91 -42 -96 -42
-6 0 -10 -4 -10 -9 0 -6 23 -3 51 5 182 54 309 176 297 285 -3 29 -5 31 -12
14z"/>
<path d="M9207 13463 c-110 -171 -194 -252 -301 -292 -30 -11 -112 -32 -182
-46 -177 -36 -194 -47 -64 -40 291 13 457 119 585 373 19 39 35 75 35 81 0 26
-20 5 -73 -76z"/>
<path d="M10631 18097 c-19 -6 -54 -29 -76 -51 -36 -35 -45 -54 -64 -124 -12
-46 -20 -86 -17 -89 6 -6 17 19 51 112 46 127 156 161 338 105 46 -15 63 -16
69 -7 11 18 0 24 -86 46 -86 23 -161 25 -215 8z"/>
<path d="M8610 15874 c0 -43 35 -175 59 -221 24 -46 28 -21 5 33 -9 22 -27 80
-40 129 -14 55 -23 78 -24 59z"/>
<path d="M8366 15862 c-20 -33 55 -409 85 -428 7 -4 9 0 5 12 -28 93 -56 228
-66 315 -13 110 -14 116 -24 101z"/>
<path d="M6561 9162 c-35 -21 -86 -58 -114 -83 -29 -25 -79 -62 -111 -83 -121
-77 -227 -200 -287 -332 l-31 -68 24 -18 c12 -9 30 -17 38 -17 8 0 37 38 65
85 107 183 240 331 409 459 58 44 106 83 106 87 0 18 -40 6 -99 -30z m-402
-424 c-27 -45 -54 -98 -59 -119 -11 -41 -26 -57 -41 -42 -14 14 123 243 146
243 2 0 -19 -37 -46 -82z"/>
<path d="M10075 11272 c-105 -36 -155 -73 -454 -330 -369 -318 -572 -504 -924
-852 -309 -304 -867 -892 -867 -914 0 -3 4 -6 9 -6 5 0 245 236 533 523 485
486 806 792 1268 1212 229 208 317 275 445 336 78 38 93 49 70 49 -16 -1 -53
-8 -80 -18z"/>
<path d="M10494 11266 c-376 -107 -769 -360 -1249 -807 -604 -562 -1435 -1411
-1461 -1492 -4 -12 -14 -27 -22 -33 -20 -15 -8 -44 17 -44 14 0 28 14 42 43
34 66 200 248 509 557 273 274 758 734 1000 950 396 352 781 612 1145 771 77
34 144 66 150 70 17 16 -48 8 -131 -15z"/>
<path d="M10270 10230 c0 -6 7 -10 15 -10 8 0 15 2 15 4 0 2 -7 6 -15 10 -8 3
-15 1 -15 -4z"/>
<path d="M9708 9980 c-136 -90 -316 -347 -345 -492 -11 -54 13 -27 61 70 71
144 129 224 244 339 56 56 102 105 102 108 0 11 -18 4 -62 -25z"/>
<path d="M9746 9729 c-116 -125 -286 -409 -286 -476 0 -39 17 -18 75 95 59
116 133 232 227 355 33 43 58 83 56 89 -2 6 -35 -23 -72 -63z"/>
<path d="M7570 9541 c0 -36 137 -161 176 -161 27 0 14 19 -31 45 -25 15 -65
49 -89 76 -44 49 -56 57 -56 40z"/>
<path d="M8788 9163 c-176 -218 -275 -447 -308 -712 -13 -105 -10 -136 30
-307 36 -151 62 -215 155 -384 41 -74 85 -161 98 -192 22 -58 37 -74 37 -40
-1 32 -46 127 -117 245 -137 225 -162 346 -128 608 21 160 42 258 81 379 38
116 132 315 188 399 20 29 36 57 36 62 0 22 -21 4 -72 -58z"/>
<path d="M7809 8680 c-1 -25 -9 -70 -31 -188 -34 -184 -15 -304 72 -452 69
-119 177 -250 206 -250 28 0 12 37 -61 135 -83 111 -145 222 -169 304 -18 63
-21 184 -5 262 13 70 14 178 0 192 -8 8 -11 7 -12 -3z"/>
<path d="M9448 8293 c-31 -38 -100 -110 -152 -162 -75 -73 -100 -92 -116 -88
-16 4 -20 1 -18 -11 6 -33 47 -25 103 18 125 97 295 310 247 310 -4 0 -33 -30
-64 -67z"/>
<path d="M7624 8212 c10 -58 104 -285 140 -339 62 -90 258 -238 411 -309 106
-49 255 -88 255 -66 0 4 -75 45 -167 92 -211 107 -354 201 -424 278 -37 40
-75 101 -119 188 -35 71 -73 143 -83 159 l-19 30 6 -33z"/>
<path d="M12806 8329 c-81 -230 -97 -575 -38 -809 31 -121 88 -270 103 -270
13 0 12 9 -25 153 -79 308 -94 607 -41 860 8 39 13 73 10 75 -2 3 -7 -1 -9 -9z"/>
<path d="M12888 7664 c-44 -99 -33 -257 24 -354 43 -72 152 -163 171 -143 4 3
-23 34 -58 68 -117 113 -162 266 -121 409 22 73 13 84 -16 20z"/>
<path d="M10523 8621 c-39 -24 -51 -74 -34 -133 15 -48 67 -101 195 -197 116
-86 130 -104 146 -183 17 -82 25 -91 74 -85 62 9 89 43 94 119 8 127 -33 198
-163 284 l-85 56 -56 -12 c-30 -7 -58 -9 -61 -6 -3 3 9 23 26 44 17 22 31 44
31 49 0 5 -15 24 -33 41 -43 42 -91 50 -134 23z"/>
<path d="M10139 8441 c-29 -29 -31 -36 -27 -81 7 -66 35 -101 148 -180 153
-108 179 -135 193 -205 15 -76 22 -85 58 -85 79 0 128 73 115 171 -13 95 -57
154 -166 219 l-54 33 -75 -17 c-41 -9 -76 -14 -78 -13 -1 2 15 28 37 57 l40
54 -34 34 c-25 26 -45 35 -79 39 -42 5 -49 2 -78 -26z"/>
<path d="M11175 8098 c-4 -13 -12 -28 -17 -34 -13 -17 -75 -1 -105 28 l-26 23
7 -30 c11 -44 34 -75 56 -75 12 0 21 -8 24 -22 20 -91 26 -139 21 -148 -13
-21 -34 -8 -69 40 -20 28 -49 55 -64 61 -61 24 -132 -18 -132 -79 0 -18 18
-73 41 -122 46 -99 48 -133 8 -138 -40 -5 -80 37 -130 134 -72 140 -119 159
-209 79 -28 -25 -61 -45 -73 -45 -12 0 -48 18 -81 40 -43 30 -69 40 -97 40
-25 0 -39 5 -39 13 0 7 -14 28 -31 47 -19 22 -28 27 -23 15 4 -11 8 -38 8 -60
1 -37 -2 -42 -37 -59 -21 -10 -68 -21 -103 -24 -78 -6 -80 -22 -3 -40 65 -17
113 -5 163 38 18 17 39 30 46 30 7 0 37 -18 66 -41 86 -66 149 -63 218 10 53
55 83 40 136 -66 75 -150 182 -211 250 -143 33 33 26 98 -21 203 -35 79 -39
92 -26 105 23 22 52 6 92 -49 38 -53 74 -74 109 -63 61 19 72 73 31 150 -30
57 -32 85 -5 109 11 10 22 33 26 52 7 40 -1 55 -11 21z"/>
<path d="M6270 7130 c-82 -12 16 -26 245 -35 77 -3 174 -7 215 -10 41 -3 154
-7 250 -10 265 -8 322 -18 453 -77 93 -43 106 -21 26 44 -57 46 -136 68 -287
78 -149 11 -846 18 -902 10z"/>
<path d="M7642 7037 c-7 -8 -10 -16 -8 -18 2 -2 6 -40 10 -84 4 -44 11 -109
17 -144 37 -233 -2 -791 -61 -889 -20 -32 -104 -71 -395 -180 -327 -123 -404
-139 -496 -107 -24 9 -111 52 -194 97 -414 223 -465 259 -515 361 -34 70 -45
123 -54 252 -10 135 -36 385 -46 441 -6 32 -7 -54 -4 -241 9 -554 10 -555 559
-848 99 -53 198 -103 221 -111 129 -45 206 -29 639 138 253 98 304 123 331
164 44 64 72 305 72 612 0 251 -8 363 -33 474 -20 89 -27 102 -43 83z"/>
<path d="M7765 6393 c-7 -102 0 -734 9 -798 3 -16 7 -79 11 -140 5 -105 19
-260 30 -335 2 -19 7 -57 10 -85 9 -74 32 -232 70 -475 18 -118 41 -276 50
-350 8 -74 18 -148 20 -164 3 -15 8 -83 11 -150 6 -110 5 -127 -14 -168 -18
-41 -29 -51 -90 -82 -38 -19 -72 -42 -76 -51 -12 -32 -6 -38 17 -17 12 11 45
28 72 37 116 40 147 93 153 265 5 140 -11 289 -83 755 -69 447 -98 690 -120
998 -12 180 -22 332 -30 472 -3 55 -8 123 -10 150 -2 28 -7 93 -11 145 -3 52
-8 96 -9 98 -2 2 -6 -45 -10 -105z"/>
<path d="M8107 6388 c6 -164 33 -235 148 -398 122 -172 197 -262 243 -291 45
-29 75 -32 35 -4 -12 8 -47 54 -78 102 -32 49 -92 135 -135 193 -94 129 -124
180 -150 256 -25 72 -50 177 -50 210 0 13 -4 24 -8 24 -5 0 -7 -42 -5 -92z"/>
<path d="M6672 6154 c-23 -23 -48 -63 -60 -97 -58 -154 6 -291 133 -289 56 1
87 14 134 57 98 89 92 244 -12 329 -30 24 -49 31 -97 34 -59 4 -61 4 -98 -34z
m133 -28 c37 -16 80 -74 90 -123 10 -49 -11 -107 -52 -143 -33 -30 -41 -32
-85 -27 -112 14 -148 98 -95 220 37 82 73 101 142 73z"/>
<path d="M6195 5742 c38 -40 320 -234 395 -272 96 -48 146 -62 234 -62 97 -1
160 19 378 122 204 96 278 136 278 150 0 22 -51 3 -284 -109 -218 -105 -272
-124 -366 -124 -131 -1 -228 40 -470 198 -69 44 -138 90 -155 100 l-30 18 20
-21z"/>
<path d="M7150 5368 c-79 -12 -188 -68 -242 -125 -64 -69 -96 -130 -114 -214
-20 -94 -13 -172 26 -280 24 -66 39 -93 81 -135 279 -283 759 -87 759 310 0
278 -237 484 -510 444z m188 -78 c103 -36 179 -108 230 -218 37 -77 38 -207 3
-295 -32 -81 -115 -168 -199 -209 -62 -31 -74 -33 -167 -33 -89 0 -107 3 -163
29 -80 37 -193 155 -217 225 -49 151 -15 299 96 410 105 105 273 142 417 91z"/>
<path d="M7352 5125 c-34 -15 -52 -42 -52 -79 0 -31 11 -33 35 -6 41 45 64 -1
25 -50 -27 -35 -25 -40 15 -40 24 0 44 9 65 28 75 67 4 185 -88 147z"/>
<path d="M6973 4905 c-22 -15 -50 -82 -39 -92 3 -4 20 4 37 16 23 17 34 20 42
12 9 -9 6 -22 -11 -51 -12 -21 -22 -41 -22 -44 0 -4 16 -6 36 -6 44 0 94 45
94 85 0 33 -24 81 -45 89 -28 11 -70 7 -92 -9z"/>
<path d="M7315 4858 c3 -13 9 -32 12 -44 12 -51 -77 -77 -99 -29 -10 21 -38
36 -38 20 0 -22 35 -66 55 -71 81 -20 145 59 99 124 -20 29 -38 29 -29 0z"/>
<path d="M6150 5235 c0 -2 7 -22 15 -42 27 -69 45 -167 45 -246 0 -58 3 -78
13 -75 17 6 21 109 7 183 -11 57 -63 185 -74 185 -3 0 -6 -2 -6 -5z"/>
<path d="M5886 4825 c-9 -26 -7 -32 5 -12 6 10 9 21 6 23 -2 3 -7 -2 -11 -11z"/>
<path d="M8602 4691 c-12 -16 -37 -35 -57 -42 -44 -16 -46 -31 -3 -19 33 10
73 42 89 73 16 28 -5 19 -29 -12z"/>
<path d="M8580 4544 c-42 -42 -165 -114 -196 -114 -8 0 -14 -4 -14 -10 0 -27
139 27 200 79 36 29 78 91 63 91 -5 0 -29 -20 -53 -46z"/>
<path d="M8565 4351 c-121 -114 -193 -152 -300 -159 -82 -5 -97 -17 -36 -27
56 -9 143 10 214 47 97 51 246 202 224 225 -3 3 -49 -36 -102 -86z"/>
<path d="M6330 4368 c-1 -19 91 -378 105 -412 38 -90 108 -145 216 -170 90
-21 550 -33 676 -17 119 15 209 43 270 85 47 32 112 110 101 121 -3 3 -35 -16
-71 -43 -135 -103 -208 -115 -625 -110 -349 6 -380 10 -459 68 -55 40 -89 111
-149 305 -42 135 -63 193 -64 173z"/>
<path d="M8550 4179 c-96 -90 -191 -139 -287 -147 -61 -5 -64 -7 -30 -12 53
-10 126 4 190 35 57 28 190 135 215 173 29 45 -12 22 -88 -49z"/>
<path d="M6649 4207 c17 -22 144 -101 194 -122 79 -33 59 -7 -25 32 -47 23
-108 56 -135 74 -26 18 -42 25 -34 16z"/>
<path d="M6450 4143 c1 -16 70 -102 102 -126 75 -56 189 -72 267 -37 59 27 46
36 -29 20 -114 -24 -191 2 -278 94 -53 55 -62 63 -62 49z"/>
<path d="M8528 3941 c-102 -68 -193 -101 -300 -108 -54 -4 -78 -10 -78 -19 0
-18 52 -27 123 -19 146 15 293 89 333 167 9 16 14 32 12 34 -2 2 -43 -23 -90
-55z"/>
<path d="M5543 3905 c-3 -9 -3 -32 0 -51 24 -144 195 -315 422 -419 221 -102
347 -168 418 -219 43 -31 80 -56 83 -56 13 0 -1 31 -32 70 -73 92 -169 155
-394 258 -232 107 -368 215 -439 352 -23 44 -44 80 -47 80 -2 0 -7 -7 -11 -15z"/>
<path d="M5747 3036 c47 -41 40 -89 -36 -245 -45 -91 -61 -135 -54 -142 14
-14 40 24 94 141 36 79 43 105 44 157 0 51 -4 66 -24 87 -14 14 -31 26 -38 26
-8 0 -2 -10 14 -24z"/>
<path d="M9051 3014 c23 -121 147 -237 256 -238 59 -1 50 16 -18 37 -32 9 -77
32 -101 50 -48 37 -104 113 -116 160 -13 52 -31 44 -21 -9z"/>
<path d="M8826 2988 c36 -118 189 -261 294 -275 62 -9 48 12 -40 57 -87 46
-166 117 -212 192 -31 50 -54 64 -42 26z"/>
<path d="M5907 2845 c-7 -71 -36 -133 -87 -189 -37 -40 -40 -47 -24 -53 26
-10 96 72 117 137 18 55 23 145 8 154 -4 3 -11 -19 -14 -49z"/>
<path d="M6044 2698 c-9 -29 -28 -75 -41 -101 -13 -27 -22 -52 -18 -55 22 -22
70 69 84 161 11 63 -3 60 -25 -5z"/>
<path d="M8655 2462 c6 -5 46 -17 90 -27 183 -40 314 -99 529 -238 166 -107
255 -154 314 -163 89 -14 39 44 -116 133 -48 28 -132 78 -187 111 -112 68
-244 123 -385 159 -103 26 -262 43 -245 25z"/>
<path d="M8933 1556 c-57 -19 -101 -47 -149 -98 -70 -74 -95 -128 -59 -128 8
0 12 6 9 13 -7 19 59 101 109 135 91 62 181 70 272 22 32 -17 60 -28 63 -26 2
3 -2 16 -11 29 -34 52 -153 79 -234 53z"/>
<path d="M8950 1457 c-82 -27 -151 -139 -136 -219 23 -121 154 -179 253 -110
21 15 48 32 58 38 37 21 58 60 57 109 -2 58 -41 148 -77 171 -32 21 -108 27
-155 11z m102 -78 c11 -6 29 -31 39 -55 20 -44 20 -44 0 -88 -22 -50 -66 -80
-105 -70 -13 3 -39 18 -57 34 -30 24 -34 34 -34 75 0 41 4 51 37 81 40 36 81
44 120 23z"/>
<path d="M11237 17313 c-59 -45 -92 -99 -163 -273 -37 -91 -81 -190 -97 -220
-81 -150 -260 -355 -460 -526 -177 -152 -180 -163 -7 -30 134 103 368 337 442
442 69 96 139 230 169 322 38 117 86 209 134 261 52 56 42 68 -18 24z"/>
<path d="M12570 17153 c0 -5 15 -24 34 -42 41 -40 89 -135 106 -210 30 -128
-5 -324 -81 -460 -88 -155 -265 -328 -474 -463 -74 -48 -305 -173 -305 -165 0
3 33 29 73 59 222 168 382 350 407 464 12 51 -2 40 -34 -29 -48 -102 -277
-319 -481 -457 -98 -66 -259 -154 -347 -190 -185 -75 -210 -86 -206 -95 1 -6
28 -10 58 -9 368 7 404 3 556 -66 122 -55 246 -140 205 -140 -10 0 -24 -31
-17 -38 3 -2 17 3 31 12 25 16 27 16 63 -12 82 -64 135 -70 184 -22 25 26 29
36 24 63 -4 17 -20 45 -37 63 l-30 31 56 43 c78 60 207 199 266 287 72 106
144 254 173 357 14 48 26 97 26 107 0 11 5 19 11 19 15 0 3 -158 -22 -294 -23
-124 -56 -233 -105 -355 -19 -46 -33 -85 -31 -88 7 -7 93 206 120 297 41 137
65 291 69 438 1 40 5 67 9 60 16 -29 71 -240 90 -343 24 -134 26 -332 5 -464
-27 -164 -89 -359 -156 -490 -11 -22 -16 -42 -11 -45 10 -7 90 79 128 136 14
21 30 35 38 32 16 -7 62 16 106 53 36 30 34 26 -23 -59 -25 -37 -58 -70 -93
-92 -79 -51 -95 -93 -52 -134 30 -29 69 -28 154 2 149 54 353 94 353 70 0 -5
-9 -24 -20 -42 -24 -39 -25 -52 -5 -52 8 0 47 38 87 84 40 47 74 84 75 82 11
-11 35 -166 34 -226 0 -124 -56 -268 -164 -422 l-40 -56 -28 21 c-21 15 -29
29 -29 52 0 44 -31 96 -71 117 -48 26 -132 23 -226 -7 -81 -26 -182 -78 -184
-95 -3 -20 -5 -26 -28 -60 -21 -32 -22 -43 -18 -141 6 -123 22 -164 86 -222
55 -49 106 -63 184 -50 34 6 63 10 64 9 1 0 -8 -29 -20 -64 -16 -50 -28 -69
-56 -88 -20 -13 -31 -24 -25 -24 5 0 19 7 30 15 10 8 21 15 24 15 3 0 4 -31 2
-69 -3 -53 3 -96 24 -173 35 -132 37 -237 6 -322 -52 -144 -145 -253 -478
-566 -365 -344 -394 -370 -449 -401 -160 -93 -373 -100 -566 -20 -41 17 -185
101 -319 187 -318 203 -398 251 -435 260 l-30 7 35 -37 c19 -20 110 -89 202
-154 l167 -117 -60 -8 c-73 -9 -121 -33 -210 -101 -56 -43 -70 -59 -85 -102
l-17 -52 -49 57 c-178 206 -309 489 -373 807 -14 71 -28 137 -30 147 -2 9 -2
17 0 17 1 0 26 -42 56 -92 107 -188 151 -238 208 -238 30 0 26 17 -8 34 -40
21 -80 70 -141 172 -30 49 -71 114 -91 145 -37 54 -40 67 -74 265 -19 115 -39
225 -45 244 -5 19 -10 37 -10 39 0 3 16 -22 36 -55 131 -218 305 -337 524
-358 25 -3 62 -12 82 -20 50 -21 58 -20 28 5 -17 14 -21 22 -12 26 29 12 10
31 -38 38 -45 6 -55 13 -109 71 -224 245 -334 542 -354 956 -3 76 0 76 31 -1
32 -79 98 -166 201 -264 115 -109 208 -166 282 -172 46 -5 50 -4 26 6 -15 6
-25 15 -22 19 3 5 0 12 -6 16 -8 4 -9 3 -5 -4 13 -21 -19 -13 -65 16 -65 42
-175 142 -252 230 -73 83 -126 175 -151 262 -16 54 -76 423 -76 467 0 13 -4
23 -9 23 -10 0 -6 -126 8 -285 5 -49 6 -171 4 -270 -13 -457 82 -772 298 -987
l67 -67 -38 14 c-118 42 -230 124 -312 228 l-33 42 55 -47 c29 -26 56 -45 58
-43 2 2 -17 32 -43 67 -83 111 -89 133 -105 418 -17 298 -27 397 -42 406 -8 5
-9 -44 -4 -172 10 -295 17 -416 27 -478 5 -33 7 -61 5 -63 -6 -6 -71 155 -105
262 -40 121 -60 162 -97 195 -18 16 -23 18 -13 5 30 -36 49 -83 69 -167 28
-118 24 -118 -20 2 -21 58 -39 96 -39 85 -1 -31 88 -354 104 -379 22 -35 50
-193 101 -571 69 -517 183 -788 446 -1054 92 -92 226 -197 237 -185 3 3 -29
38 -71 78 -64 58 -76 75 -72 94 4 12 13 22 20 22 8 0 25 17 38 39 54 85 125
121 240 121 63 0 67 -1 78 -27 44 -110 76 -162 138 -223 128 -126 296 -189
551 -206 69 -4 99 -3 104 6 10 16 6 18 -76 41 -142 39 -292 122 -404 222 l-50
45 90 -30 c71 -24 113 -32 200 -35 173 -8 288 27 423 129 74 56 86 56 146 7
69 -58 79 -112 46 -239 -40 -151 -22 -216 84 -317 73 -69 101 -82 123 -60 13
13 10 17 -26 38 -28 15 -48 37 -62 67 -27 55 -22 114 19 238 74 220 85 263 79
321 -8 77 -35 148 -76 195 l-34 39 217 212 c197 192 217 209 211 178 -4 -19
-23 -59 -44 -90 -38 -57 -109 -206 -131 -274 -7 -22 -10 -69 -8 -107 8 -142
139 -331 280 -405 66 -34 66 -27 12 -168 -75 -196 -172 -327 -363 -486 -51
-42 -88 -102 -76 -121 4 -6 27 -10 53 -10 l47 0 -38 -25 c-35 -25 -55 -63 -43
-84 3 -5 -39 -29 -94 -52 -55 -24 -100 -48 -100 -53 0 -13 231 0 315 18 39 8
98 24 132 34 46 14 80 18 126 15 78 -7 197 22 300 71 40 18 87 34 105 34 18 0
49 6 70 13 70 22 392 245 445 308 l25 30 40 -62 c22 -34 57 -97 78 -139 37
-76 54 -95 54 -62 0 38 -86 229 -140 311 -72 110 -164 197 -299 283 -351 224
-387 252 -451 345 -87 126 -91 322 -10 494 33 70 37 86 14 56 -24 -31 -69
-124 -88 -181 -22 -68 -27 -187 -11 -249 7 -27 12 -51 10 -53 -6 -6 -69 102
-91 156 -25 64 -40 172 -30 224 9 47 128 179 225 248 170 121 313 254 411 380
24 30 40 46 37 35 -4 -11 -18 -83 -33 -160 -34 -183 -42 -372 -20 -475 26
-125 64 -188 169 -282 216 -195 288 -286 327 -413 33 -107 41 -118 34 -52 -8
85 -51 225 -85 279 -32 49 -81 97 -196 192 -188 155 -242 328 -199 641 47 344
49 350 82 426 53 122 76 226 76 348 0 119 -15 191 -63 297 -71 155 -82 230
-58 371 9 50 15 63 29 63 53 0 7 40 -52 45 -33 3 -94 40 -113 69 -8 11 -17 41
-20 66 l-7 45 43 -73 c38 -63 47 -73 69 -70 l25 3 -2 120 c-2 127 10 202 61
378 14 49 33 136 43 194 30 189 -4 347 -133 608 -77 158 -161 282 -177 266 -6
-6 0 -26 16 -53 13 -24 54 -94 90 -157 126 -217 179 -377 181 -551 1 -124 -3
-149 -66 -357 -21 -73 -47 -169 -57 -215 l-19 -83 -33 70 c-32 66 -34 76 -34
175 0 88 4 114 24 160 43 101 61 195 61 314 0 158 -27 253 -105 371 -48 72
-76 76 -40 5 98 -193 127 -415 76 -580 -32 -102 -82 -202 -98 -196 -8 3 -13
-2 -13 -15 0 -19 -38 -84 -45 -77 -7 6 24 114 49 174 49 117 59 328 22 450
-16 50 -40 83 -53 71 -3 -4 1 -44 10 -89 25 -131 30 -193 21 -276 -4 -42 -10
-67 -12 -54 -6 37 -25 25 -56 -33 -34 -66 -98 -140 -137 -161 -37 -19 -37 -6
2 42 47 59 108 193 125 273 18 89 19 179 4 435 -9 143 -18 218 -31 259 -11 31
-19 64 -19 71 0 8 -4 18 -10 21 -5 3 -8 0 -5 -7 8 -20 16 -130 20 -273 6 -217
-26 -387 -103 -545 -25 -52 -46 -102 -47 -111 -8 -65 -141 -239 -184 -239
l-22 0 24 33 c70 95 134 251 173 422 22 98 27 145 28 262 1 83 -3 146 -9 152
-7 6 -10 -24 -11 -92 -3 -163 -57 -389 -125 -518 -31 -58 -123 -158 -135 -146
-4 4 10 53 31 109 93 254 115 367 110 563 -4 195 -54 387 -141 542 -38 68 -59
82 -26 16 54 -105 104 -298 121 -463 21 -216 -22 -477 -115 -688 -26 -59 -152
-257 -159 -250 -3 3 8 29 24 59 70 130 130 340 150 524 5 44 7 146 5 226 -4
213 -43 386 -119 539 -27 54 -32 73 -28 113 3 29 1 47 -6 47 -11 0 -21 -34
-45 -162 -33 -179 -119 -388 -222 -543 -59 -88 -230 -277 -288 -317 -20 -14
-9 1 30 43 228 241 375 581 350 810 -6 47 -2 64 22 120 98 215 79 455 -46 612
-34 42 -82 83 -82 70z m70 -905 c-14 -139 -22 -179 -61 -279 -45 -116 -207
-349 -316 -452 l-30 -28 -68 32 c-169 78 -288 103 -497 104 l-157 0 55 28 c31
16 100 44 155 63 384 134 738 377 896 616 14 21 28 36 30 34 3 -2 0 -55 -7
-118z m778 -691 c-11 -107 -52 -239 -107 -350 -54 -109 -52 -124 19 -92 42 19
92 67 134 130 l28 40 -7 -55 c-4 -30 -14 -81 -22 -113 l-16 -58 -48 6 c-64 9
-175 9 -229 0 l-45 -7 46 49 c56 58 89 110 116 183 12 31 35 82 51 115 25 49
51 121 78 213 9 30 10 6 2 -61z m-1511 -2 c88 -17 198 -52 256 -82 l38 -19
-26 -24 -25 -24 -88 47 c-48 25 -135 62 -192 81 -116 39 -101 47 37 21z m382
-159 c26 -28 25 -69 -2 -74 -19 -4 -97 42 -97 56 0 7 56 40 71 41 3 1 16 -10
28 -23z m704 -381 c-29 -13 -53 -29 -53 -36 0 -14 18 -10 120 27 58 20 100 28
186 32 77 3 113 1 118 -7 5 -7 -5 -11 -31 -11 -51 0 -190 -34 -271 -67 -79
-31 -120 -33 -138 -8 -12 16 -11 21 4 38 17 20 88 57 107 56 6 0 -14 -11 -42
-24z m-182 -28 c-10 -9 -11 -8 -5 6 3 10 9 15 12 12 3 -3 0 -11 -7 -18z m907
-368 l43 -19 -8 -47 c-4 -27 -8 -97 -8 -158 1 -103 3 -117 43 -230 48 -137 62
-217 56 -325 -9 -166 -86 -359 -208 -521 -83 -110 -265 -284 -408 -392 -115
-86 -166 -142 -211 -232 -43 -85 -57 -151 -57 -259 0 -137 24 -211 97 -306 24
-31 11 -21 -40 31 -139 141 -184 280 -138 425 43 134 98 229 190 328 47 51
106 106 131 122 181 117 350 368 405 599 17 73 23 282 11 365 -12 82 -38 180
-47 180 -12 0 -12 0 6 -100 24 -136 21 -288 -9 -390 -57 -198 -139 -327 -372
-589 -48 -56 -108 -115 -131 -131 -39 -29 -43 -30 -43 -11 0 32 16 65 58 121
52 69 107 182 121 248 14 69 14 136 -1 306 -16 181 -2 253 78 414 31 62 58
111 60 109 2 -2 -7 -57 -21 -122 -26 -118 -34 -251 -20 -331 14 -80 74 -279
81 -271 2 2 -3 53 -13 113 -20 133 -23 389 -5 494 7 41 15 98 17 125 1 28 3
56 4 63 1 12 17 20 69 36 19 6 22 4 22 -21 0 -15 -11 -74 -25 -131 -37 -151
-31 -218 24 -266 29 -26 34 -17 16 34 -20 56 -19 98 5 287 12 91 18 178 15
204 -6 39 -2 56 23 105 16 33 41 96 57 141 l28 82 30 -31 c17 -17 51 -39 75
-49z m-578 -157 c38 -38 46 -95 25 -168 -20 -70 -72 -154 -114 -184 -83 -59
-186 -15 -207 88 -5 25 -3 32 9 32 8 0 22 2 29 5 9 4 19 -4 25 -18 16 -34 61
-48 101 -31 45 18 72 68 72 130 0 79 -16 113 -63 134 l-41 18 35 10 c63 19 98
14 129 -16z m-200 -22 c0 -5 -7 -35 -15 -67 -16 -63 -43 -106 -69 -111 -24 -5
-21 68 4 118 25 48 80 90 80 60z m540 -90 c0 -20 -5 -30 -15 -30 -18 0 -19 14
-3 40 17 26 18 25 18 -10z m-269 -215 c1 -5 -15 -38 -36 -72 -43 -72 -53 -75
-155 -46 l-60 16 51 17 c66 23 120 77 156 155 l28 62 7 -61 c4 -34 8 -65 9
-71z m-183 -1560 c2 -65 18 -119 65 -210 33 -64 63 -102 151 -190 93 -93 147
-135 336 -263 211 -142 344 -245 376 -291 13 -18 10 -23 -34 -61 -26 -23 -55
-46 -65 -52 -16 -8 -18 -6 -11 26 8 47 -6 46 -31 -1 -44 -84 -195 -214 -299
-257 -32 -13 -26 -5 49 65 80 77 181 215 173 239 -1 5 -30 -22 -63 -62 -122
-147 -299 -274 -459 -330 -45 -15 -97 -28 -116 -28 l-35 0 55 32 c156 89 298
235 373 383 24 49 50 126 43 132 -2 2 -22 -36 -45 -83 -54 -113 -113 -195
-197 -273 -169 -159 -396 -256 -643 -277 l-66 -5 101 44 c335 146 567 417 590
691 l5 61 -21 -75 c-64 -235 -230 -444 -451 -569 -73 -41 -97 -40 -32 2 79 49
207 163 258 228 43 54 102 165 93 174 -2 2 -24 -26 -49 -63 -48 -72 -213 -225
-266 -248 -36 -16 -99 -19 -107 -5 -3 4 44 54 104 110 60 56 135 136 167 179
154 204 246 484 199 607 -18 46 -44 64 -32 23 14 -49 17 -105 8 -143 l-9 -40
-42 45 c-87 93 -139 244 -127 366 7 71 33 164 45 164 5 0 9 -20 9 -45z m-430
-154 c17 -36 26 -78 29 -125 l4 -71 -19 41 c-24 51 -73 107 -118 134 -19 12
-34 25 -34 29 0 4 17 27 37 50 l37 44 19 -24 c11 -13 31 -48 45 -78z m-57
-140 c58 -89 60 -145 8 -306 -16 -50 -29 -118 -31 -153 -2 -61 -3 -62 -19 -41
-20 27 -39 86 -39 120 0 14 9 58 21 99 45 162 19 240 -98 299 l-42 21 41 39
42 39 44 -37 c24 -20 57 -56 73 -80z m-1116 -26 c37 -21 85 -62 125 -106 69
-77 156 -146 233 -186 27 -13 47 -26 45 -28 -9 -10 -148 37 -225 75 -120 59
-240 180 -268 269 -9 29 0 27 90 -24z"/>
<path d="M13629 14433 c-23 -115 -12 -269 32 -413 29 -97 71 -200 79 -195 16
10 -2 104 -42 224 -42 126 -42 126 -42 283 -1 87 -4 158 -8 158 -4 0 -12 -26
-19 -57z"/>
<path d="M12994 17137 c38 -23 109 -92 131 -127 65 -104 95 -257 87 -452 -3
-74 -1 -108 7 -108 20 0 26 54 25 215 -1 177 -16 246 -74 329 -34 50 -107 119
-148 140 -36 18 -56 21 -28 3z"/>
<path d="M12399 17036 c106 -140 125 -284 56 -434 -14 -29 -39 -71 -56 -93
-41 -52 -21 -50 26 2 111 123 132 311 52 462 -28 54 -95 127 -117 127 -5 0 13
-29 39 -64z"/>
<path d="M13339 16875 c57 -102 121 -186 224 -290 54 -55 107 -116 117 -135
10 -19 55 -93 99 -164 44 -70 88 -152 98 -182 9 -29 19 -51 23 -49 11 7 0 95
-21 166 -25 88 -72 156 -172 254 -105 102 -272 289 -338 380 -65 90 -70 93
-30 20z"/>
<path d="M13300 16705 c-2 -112 -4 -129 -26 -233 -18 -79 -14 -100 9 -55 24
47 37 129 36 231 -2 140 -16 184 -19 57z"/>
<path d="M11294 16698 c-42 -83 -127 -211 -244 -363 -129 -169 -192 -262 -254
-375 -26 -47 -51 -92 -56 -100 -19 -33 -91 -233 -115 -322 -27 -98 -50 -224
-59 -322 -7 -71 -18 -86 -62 -86 -49 0 -42 -18 11 -26 l45 -6 0 -62 c0 -270
118 -620 288 -853 25 -35 48 -61 50 -58 2 2 -6 18 -18 35 -12 17 -23 36 -24
43 -1 7 -18 40 -39 73 -119 197 -180 409 -194 678 l-6 129 24 -6 c13 -4 36 -7
51 -7 23 0 32 -8 51 -47 13 -27 27 -61 31 -77 15 -60 94 -163 168 -219 99 -74
140 -93 265 -123 82 -20 119 -24 161 -19 152 19 244 94 279 229 23 86 9 179
-36 243 -17 24 -26 43 -21 43 6 0 10 -4 10 -8 0 -5 18 -17 40 -27 61 -28 154
-131 196 -219 20 -42 41 -76 45 -76 5 0 9 20 9 44 0 51 -35 124 -88 180 -26
27 -31 37 -17 31 41 -15 109 -35 122 -35 25 0 -44 74 -101 108 -70 43 -222 97
-332 118 -59 11 -149 18 -269 19 -159 2 -190 5 -262 27 -46 14 -83 22 -83 18
0 -4 30 -21 68 -38 l67 -31 -80 5 c-44 3 -106 7 -138 9 -71 5 -67 -7 10 -25
l58 -14 -65 -7 c-160 -18 -150 -19 -150 7 0 37 39 228 61 299 18 60 22 66 65
84 67 30 380 203 524 289 98 59 139 78 195 89 111 23 248 84 382 170 29 18 53
32 53 29 0 -7 -192 -151 -287 -214 -144 -97 -325 -197 -389 -216 -87 -26 -104
-34 -104 -51 0 -11 12 -15 49 -15 39 0 67 9 128 41 43 22 130 63 193 90 296
129 622 339 713 459 54 70 58 105 5 39 -70 -86 -274 -231 -493 -348 -93 -51
-91 -47 35 47 209 156 400 350 431 440 13 37 3 57 -15 28 -6 -10 -23 -37 -38
-61 -61 -98 -352 -298 -543 -373 -53 -21 -125 -42 -125 -37 0 1 37 30 83 63
176 129 318 272 419 420 49 73 110 193 123 242 5 22 5 23 -7 8 -7 -10 -33 -54
-58 -99 -114 -209 -365 -441 -710 -657 -124 -77 -570 -325 -576 -320 -2 3 1
18 6 35 9 24 16 29 34 26 15 -3 63 16 137 54 292 152 516 308 684 479 85 86
213 249 203 259 -3 3 -19 -15 -37 -40 -46 -65 -184 -201 -277 -275 -141 -112
-283 -203 -544 -347 -74 -41 -146 -85 -159 -96 -27 -25 -27 -26 13 66 27 62
33 69 83 91 90 42 235 131 344 212 102 76 329 288 329 307 0 5 -33 -22 -74
-61 -136 -129 -334 -266 -524 -361 -77 -38 -83 -40 -77 -20 18 54 156 298 247
433 121 179 154 235 179 299 27 68 16 71 -17 5z m102 -1563 c6 -8 22 -15 35
-15 33 -1 100 -33 126 -61 34 -38 53 -93 53 -157 0 -109 -45 -187 -135 -235
-32 -18 -57 -22 -130 -22 -80 0 -96 3 -145 28 -154 80 -254 270 -210 401 15
46 27 52 130 66 47 6 87 14 90 17 3 3 43 2 90 -1 58 -4 89 -11 96 -21z m-443
-72 c-12 -66 -5 -146 20 -216 14 -37 23 -67 21 -67 -13 0 -76 118 -89 167 -23
88 -20 120 13 137 40 22 44 20 35 -21z"/>
<path d="M11160 15094 c-55 -38 -88 -80 -100 -124 -23 -84 20 -147 93 -137 21
3 47 13 58 23 18 16 19 16 19 0 0 -31 49 -66 92 -66 57 0 96 25 119 73 48 107
-6 217 -100 204 -34 -4 -41 -1 -60 24 -27 37 -71 38 -121 3z m90 -70 c0 -42
-42 -129 -69 -144 -31 -16 -59 -12 -75 12 -36 50 -2 133 66 166 55 25 78 16
78 -34z"/>
<path d="M10276 16068 c-42 -180 -65 -298 -86 -440 -19 -133 -23 -162 -39
-313 -11 -109 -17 -321 -11 -440 2 -52 4 -45 15 60 7 66 16 154 20 195 28 309
81 738 120 959 8 47 13 86 11 88 -2 2 -15 -47 -30 -109z"/>
<path d="M10546 15918 c-2 -7 -9 -42 -15 -78 -6 -36 -40 -159 -76 -275 -71
-228 -88 -307 -83 -375 5 -56 9 -45 43 109 15 69 45 183 66 255 42 138 66 250
72 329 4 45 0 61 -7 35z"/>
<path d="M9852 15448 c-35 -160 -41 -320 -17 -518 16 -142 34 -209 77 -294 33
-66 79 -138 84 -133 4 4 -46 248 -81 389 -34 141 -44 248 -40 446 2 89 0 162
-4 162 -4 0 -13 -24 -19 -52z"/>
<path d="M11270 15318 c-36 -4 -96 -14 -135 -22 l-70 -14 155 -1 c179 -1 301
-18 454 -61 60 -17 111 -28 114 -25 11 10 -43 56 -97 81 -101 48 -249 63 -421
42z"/>
<path d="M9681 14975 c-2 -33 29 -278 38 -310 l9 -30 1 39 c2 63 -45 356 -48
301z"/>
<path d="M11975 14848 c9 -59 15 -78 25 -78 11 0 21 30 16 49 -2 9 -7 28 -10
44 -4 15 -13 27 -22 27 -13 0 -15 -8 -9 -42z"/>
<path d="M11905 14693 c-84 -64 -315 -138 -450 -143 -25 -1 -27 -3 -10 -9 10
-4 71 -7 135 -5 88 2 128 7 171 23 71 27 138 71 167 110 24 34 17 47 -13 24z"/>
<path d="M13155 14653 c-81 -13 -137 -29 -178 -50 -61 -31 -55 -39 14 -19 67
20 112 20 202 0 84 -19 120 -36 141 -65 19 -27 40 -15 31 18 -10 41 -36 73
-74 92 -37 19 -101 30 -136 24z"/>
<path d="M12811 14524 c-44 -37 -39 -51 7 -18 55 41 58 44 40 44 -9 0 -30 -12
-47 -26z"/>
<path d="M10606 14440 c27 -103 155 -268 257 -331 29 -17 66 -41 82 -52 28
-19 29 -20 15 -2 -32 42 -51 59 -65 61 -49 7 -208 180 -263 285 -18 35 -30 53
-26 39z"/>
<path d="M11315 14319 c-98 -56 -118 -70 -111 -76 5 -6 159 79 196 107 46 36
5 21 -85 -31z"/>
<path d="M11511 14335 c-65 -31 -158 -98 -143 -103 6 -2 31 10 54 26 24 16 71
44 106 61 34 17 62 33 62 36 0 11 -28 4 -79 -20z"/>
<path d="M12679 14298 c-20 -77 -17 -211 5 -278 15 -42 34 -69 83 -117 47 -46
63 -68 63 -89 0 -41 -43 -106 -107 -163 -50 -43 -55 -51 -35 -51 58 0 202 195
202 273 0 31 -7 42 -51 79 -81 68 -128 184 -132 322 -1 42 -5 76 -8 76 -4 0
-13 -24 -20 -52z"/>
<path d="M11741 14260 c-46 -22 -81 -43 -78 -46 2 -3 47 15 98 40 52 24 87 45
78 45 -8 1 -53 -17 -98 -39z"/>
<path d="M9471 14154 c0 -11 3 -14 6 -6 3 7 2 16 -1 19 -3 4 -6 -2 -5 -13z"/>
<path d="M13016 13885 c-10 -8 -24 -16 -30 -18 -6 -2 -8 -7 -4 -11 7 -8 63 18
73 34 9 15 -17 12 -39 -5z"/>
<path d="M9894 13676 c6 -201 28 -452 47 -536 19 -86 30 -120 38 -120 10 0 7
37 -19 245 -21 162 -45 392 -56 520 -12 146 -17 93 -10 -109z"/>
<path d="M12508 13710 c-18 -16 -28 -30 -21 -30 15 0 82 42 83 53 1 17 -32 5
-62 -23z"/>
<path d="M10025 13453 c8 -23 31 -202 40 -313 19 -259 44 -398 91 -517 55
-139 153 -261 276 -343 54 -36 232 -193 198 -175 -8 5 -49 31 -90 58 -219 145
-368 304 -462 492 -40 78 -98 252 -98 290 0 14 -4 25 -9 25 -12 0 -2 -92 19
-182 42 -171 134 -330 280 -482 148 -154 279 -247 570 -403 96 -52 166 -92
155 -89 -96 27 -366 114 -435 140 -123 48 -233 106 -325 170 l-80 57 51 -49
c140 -132 252 -183 764 -347 216 -69 329 -120 452 -201 61 -41 119 -74 128
-74 44 0 301 -230 374 -335 24 -33 58 -88 76 -122 55 -106 67 -70 14 45 -34
77 -142 237 -203 304 -124 135 -288 247 -586 400 -115 59 -202 108 -192 108
38 0 8 26 -62 51 -264 98 -451 261 -610 533 -25 44 -53 82 -61 84 -12 4 -12 2
2 -14 9 -10 31 -50 50 -89 18 -38 46 -92 62 -120 l28 -50 -57 60 c-70 75 -147
197 -184 295 -33 84 -69 253 -101 470 -28 189 -60 340 -72 340 -6 0 -7 -8 -3
-17z"/>
<path d="M12200 13281 c-14 -5 -47 -9 -73 -10 -80 -2 -44 -18 53 -24 74 -5
104 -12 158 -37 62 -29 72 -31 138 -25 47 4 74 3 79 -4 9 -16 25 -13 25 3 0
23 -41 46 -83 46 -21 0 -61 12 -90 26 -56 29 -160 41 -207 25z"/>
<path d="M12340 13023 l-35 -16 30 -7 c48 -12 63 -11 79 6 35 34 -13 45 -74
17z"/>
<path d="M13380 12637 c0 -126 66 -289 164 -408 60 -73 102 -108 241 -204 190
-130 286 -212 264 -225 -8 -6 -2 -13 19 -24 36 -19 75 -66 97 -119 16 -40 36
-43 28 -4 -4 19 0 17 25 -11 70 -79 101 -250 67 -368 -24 -83 -69 -152 -186
-284 -126 -143 -193 -236 -216 -303 -20 -59 -23 -181 -5 -212 9 -17 11 -9 12
46 0 137 47 229 216 429 152 180 204 272 220 388 14 111 -35 260 -120 358 -37
43 -86 117 -86 130 0 2 11 -3 25 -12 23 -15 25 -15 25 0 0 22 -122 148 -312
323 -166 153 -209 207 -255 317 -35 86 -41 72 -9 -22 37 -109 69 -156 200
-291 l121 -124 -120 81 c-154 104 -222 165 -281 253 -51 78 -99 202 -110 286
-8 69 -24 68 -24 0z"/>
<path d="M7345 12572 c-22 -1 -104 -11 -182 -22 -597 -84 -1200 -326 -1702
-683 -145 -103 -181 -121 -230 -113 -46 7 -91 51 -91 88 0 17 -4 27 -10 23
-29 -18 5 -97 51 -121 64 -32 159 -10 254 60 71 53 281 175 425 247 435 218
904 360 1395 423 67 8 205 27 308 41 103 14 218 26 255 26 58 1 51 3 -58 15
-126 13 -340 21 -415 16z"/>
<path d="M7450 12354 c-14 -3 -79 -14 -145 -25 -479 -81 -875 -182 -875 -224
0 -15 30 -10 190 35 232 65 731 155 913 166 62 3 116 10 121 14 24 23 -126 48
-204 34z"/>
<path d="M5675 12305 c-42 -18 -397 -214 -462 -254 -54 -33 -70 -58 -32 -48
29 8 455 234 507 269 23 16 40 33 37 39 -8 11 -12 11 -50 -6z"/>
<path d="M5755 12239 c-22 -12 -83 -49 -135 -83 -52 -34 -133 -85 -180 -113
-104 -63 -127 -80 -119 -87 13 -13 289 140 417 231 34 24 62 51 62 59 0 18 2
18 -45 -7z"/>
<path d="M7276 12184 c-93 -13 -174 -29 -180 -35 -13 -13 57 -9 280 16 163 18
192 23 199 36 10 15 -121 8 -299 -17z"/>
<path d="M11081 11936 c2 -2 67 -28 144 -56 304 -114 481 -215 625 -360 174
-173 319 -448 400 -759 15 -59 20 -48 8 18 -5 29 -7 55 -5 58 18 17 139 -83
190 -156 35 -52 48 -41 18 16 -28 54 -97 118 -161 147 -55 25 -55 26 -72 93
-9 37 -16 68 -15 69 1 1 54 -33 117 -75 196 -129 224 -169 280 -392 17 -68 42
-149 57 -181 25 -55 97 -136 125 -140 7 0 18 -2 23 -2 6 -1 31 -18 55 -37 53
-43 93 -64 169 -90 56 -20 161 -27 202 -14 34 11 3 25 -56 25 -176 0 -368 124
-447 289 -49 100 -60 76 -14 -30 8 -20 31 -57 51 -83 39 -52 16 -49 -28 3 -41
49 -66 111 -102 257 -19 77 -45 163 -57 193 -30 76 -103 143 -240 224 -63 37
-124 77 -135 90 -11 12 -30 49 -43 82 -68 176 -154 307 -276 425 -100 96 -187
154 -340 226 -141 68 -503 190 -473 160z"/>
<path d="M14322 11830 c0 -8 4 -26 8 -40 6 -20 8 -21 8 -5 0 11 -3 29 -8 40
-5 12 -8 14 -8 5z"/>
<path d="M14343 11725 c0 -22 2 -30 4 -17 2 12 2 30 0 40 -3 9 -5 -1 -4 -23z"/>
<path d="M8613 11561 c-115 -56 -371 -202 -478 -274 -95 -63 -273 -192 -290
-210 -17 -17 15 3 85 53 194 138 401 263 613 371 86 44 157 84 157 89 0 13 4
15 -87 -29z"/>
<path d="M7471 11367 c-14 -16 -50 -41 -80 -56 -68 -31 -207 -40 -340 -22
-275 38 -361 15 -638 -170 -263 -175 -485 -346 -673 -519 -255 -234 -367 -290
-517 -255 -80 19 -140 62 -134 98 0 4 -6 7 -14 7 -22 0 -18 -31 10 -72 48 -71
172 -107 309 -89 141 19 200 56 463 290 198 176 686 531 828 603 132 67 151
71 375 73 218 2 261 7 326 37 38 18 123 93 113 101 -2 3 -15 -9 -28 -26z"/>
<path d="M14076 11200 c-20 -33 -76 -110 -124 -172 -156 -202 -192 -276 -192
-393 0 -152 97 -278 234 -304 67 -12 65 3 -3 28 -75 27 -143 87 -177 157 -24
49 -26 63 -22 134 6 104 46 185 168 340 82 105 171 253 158 265 -3 3 -22 -22
-42 -55z"/>
<path d="M6107 11042 c-71 -63 -98 -82 -220 -156 -71 -44 -138 -109 -124 -122
3 -3 23 12 44 33 22 21 66 51 99 68 171 86 304 181 304 218 0 32 -37 17 -103
-41z"/>
<path d="M7720 10789 c-61 -45 -200 -114 -384 -191 -357 -148 -668 -334 -1216
-725 -366 -261 -503 -353 -545 -367 -25 -9 -52 -10 -83 -5 -72 13 -239 101
-316 166 -90 76 -106 87 -106 75 0 -5 34 -42 76 -81 124 -118 313 -230 389
-231 70 0 226 99 613 392 391 296 447 338 552 409 221 151 416 257 660 359
217 90 366 172 410 225 19 22 11 18 -50 -26z"/>
<path d="M4920 10811 c0 -4 7 -14 15 -21 9 -7 28 -38 43 -68 73 -150 235 -248
347 -211 22 8 41 21 43 30 2 13 -9 17 -60 22 -135 12 -217 59 -303 176 -34 48
-85 90 -85 72z"/>
<path d="M6940 10604 c-499 -256 -538 -280 -730 -468 -183 -179 -252 -226
-428 -293 -141 -53 -186 -91 -94 -80 66 8 274 94 358 149 38 25 133 106 210
179 181 175 177 173 659 459 229 136 281 170 260 170 -6 0 -111 -52 -235 -116z"/>
<path d="M4600 10436 c0 -3 14 -44 31 -93 58 -165 150 -324 235 -409 62 -63
154 -105 154 -71 0 6 -40 56 -89 110 -104 113 -217 279 -290 425 -12 23 -26
42 -31 42 -6 0 -10 -2 -10 -4z"/>
<path d="M11208 10404 c-59 -18 -62 -34 -5 -35 23 0 49 -2 57 -3 8 -2 52 -6
97 -10 86 -7 214 -40 321 -83 35 -14 66 -22 70 -18 11 11 -66 71 -133 105 -33
16 -87 36 -120 45 -74 19 -224 18 -287 -1z"/>
<path d="M5008 10264 c-3 -2 13 -24 36 -47 23 -24 59 -72 81 -107 50 -80 101
-110 185 -110 114 0 242 65 350 176 36 37 52 57 35 45 -80 -59 -179 -121 -211
-131 -22 -8 -71 -11 -123 -8 -110 6 -167 30 -246 107 -59 58 -98 85 -107 75z"/>
<path d="M12356 9471 c-16 -25 -28 -168 -23 -266 6 -125 21 -201 77 -400 52
-185 63 -250 64 -370 0 -107 -13 -178 -50 -265 -32 -74 -1 -35 36 45 44 95 55
158 54 295 -1 140 -18 240 -89 516 -50 195 -70 324 -62 401 5 52 4 62 -7 44z"/>
<path d="M11430 8365 c0 -3 20 -74 44 -158 53 -182 90 -345 111 -487 9 -58 20
-123 26 -145 10 -36 12 -38 25 -21 26 36 -5 268 -66 486 -44 154 -113 330
-131 330 -5 0 -9 -2 -9 -5z"/>
<path d="M9181 7433 c-7 -26 -33 -82 -58 -123 -91 -148 -123 -237 -123 -336 0
-71 12 -97 74 -164 57 -62 89 -122 107 -197 18 -73 19 -76 26 -69 4 3 6 35 5
70 -2 82 -32 162 -85 227 -23 28 -50 65 -59 82 -36 64 -17 160 62 327 36 76
61 146 66 178 3 28 5 52 2 52 -2 0 -10 -21 -17 -47z"/>
<path d="M11757 7403 c-4 -3 -7 -66 -7 -139 l0 -132 -29 -10 c-15 -6 -72 -29
-125 -52 -141 -63 -139 -67 74 -138 l85 -28 17 -129 c9 -72 17 -131 17 -133 1
-2 11 -2 23 0 15 2 48 37 96 102 67 89 76 98 101 92 14 -3 66 -15 115 -26 107
-24 125 -25 132 -6 3 8 -25 58 -63 113 -38 54 -72 103 -76 110 -4 6 22 60 58
121 36 61 65 115 65 121 0 24 -28 21 -147 -15 l-126 -37 -35 39 c-142 157
-155 168 -175 147z m166 -200 c23 -29 31 -29 152 6 55 16 102 27 104 25 2 -1
-6 -15 -16 -31 -30 -43 -93 -160 -93 -172 0 -6 29 -52 65 -101 36 -49 65 -91
65 -93 0 -2 -46 6 -102 19 -57 13 -110 24 -120 24 -9 0 -46 -39 -85 -90 -37
-49 -71 -90 -74 -90 -4 0 -6 8 -6 18 2 34 -15 177 -23 198 -7 17 -32 30 -107
54 -54 18 -102 36 -106 40 -4 3 38 26 93 49 55 24 102 47 105 51 3 4 8 60 11
124 l7 116 56 -62 c31 -34 64 -72 74 -85z"/>
<path d="M10176 6761 c146 -66 166 -309 46 -564 -21 -45 -92 -161 -156 -257
-208 -309 -268 -425 -300 -582 -18 -88 -19 -169 -3 -247 18 -85 34 -75 35 21
0 92 18 180 57 284 33 88 73 159 208 374 174 275 227 386 262 544 23 105 17
241 -14 311 -35 79 -100 136 -153 134 -18 0 -14 -4 18 -18z"/>
<path d="M11881 6440 c-1 -3 6 -37 14 -75 28 -132 12 -270 -48 -415 -61 -150
-119 -236 -312 -468 -149 -180 -223 -281 -262 -357 -93 -182 -86 -337 21 -482
75 -102 157 -159 407 -284 206 -102 278 -148 362 -228 127 -121 224 -319 241
-494 2 -27 7 -52 11 -55 14 -13 -7 174 -27 237 -48 155 -137 288 -254 379 -40
32 -131 88 -201 126 -279 150 -363 209 -437 306 -75 101 -105 206 -87 308 22
117 94 235 309 505 53 67 119 154 145 193 176 266 227 529 143 746 -14 35 -25
61 -25 58z"/>
<path d="M10260 5803 c-140 -180 -258 -501 -244 -667 8 -88 27 -57 48 75 32
204 115 417 229 587 70 105 48 108 -33 5z"/>
<path d="M10804 5661 l-109 -77 -110 63 c-60 34 -118 63 -127 63 -27 0 -23
-30 20 -158 l37 -114 -94 -87 c-129 -119 -127 -124 47 -131 l133 -5 51 -117
c34 -78 57 -118 69 -121 24 -7 24 -7 69 131 43 134 25 122 205 144 134 17 134
25 6 122 -55 42 -102 79 -104 83 -2 5 6 60 19 123 13 63 24 122 24 131 0 36
-32 24 -136 -50z m66 -106 c-25 -125 -31 -111 84 -195 42 -30 76 -58 76 -61 0
-3 -48 -12 -107 -18 -60 -7 -112 -17 -118 -22 -5 -5 -26 -58 -45 -116 l-36
-106 -48 106 c-27 58 -55 108 -63 111 -8 4 -63 6 -121 6 l-107 1 83 77 c61 57
82 83 82 102 0 14 -14 65 -30 114 -17 49 -28 91 -26 94 3 2 31 -12 63 -31 32
-19 77 -44 101 -56 l42 -22 92 65 c51 36 94 63 96 61 2 -2 -6 -52 -18 -110z"/>
<path d="M11620 4673 c0 -4 62 -50 138 -102 336 -232 498 -378 607 -548 32
-51 63 -93 67 -93 26 0 -16 103 -80 197 -46 67 -170 190 -257 255 -70 52 -158
109 -305 197 -58 35 -120 72 -137 83 -18 11 -33 16 -33 11z"/>
<path d="M10416 4415 c-245 -160 -511 -469 -579 -669 -20 -58 -22 -147 -5
-164 32 -32 151 -3 378 92 200 83 332 44 375 -109 42 -156 67 -169 270 -139
98 14 257 22 370 19 236 -8 367 -46 441 -127 39 -44 44 -46 44 -18 0 68 -82
141 -198 175 -130 39 -462 44 -639 10 -107 -20 -167 -21 -196 -2 -14 9 -30 37
-41 73 -29 92 -62 134 -141 176 -32 18 -56 22 -120 22 -72 0 -94 -6 -219 -53
-108 -41 -149 -51 -185 -49 l-46 3 1 55 c3 153 234 467 497 675 71 56 88 75
69 75 -4 0 -39 -20 -76 -45z"/>
<path d="M11117 3264 c-1 -1 -32 -4 -68 -8 -120 -11 -309 -53 -309 -68 0 -6
10 -8 23 -4 159 43 474 55 597 22 128 -33 179 -94 180 -211 0 -119 -62 -283
-141 -372 l-43 -48 53 50 c137 130 216 314 191 446 -26 136 -161 204 -393 198
-48 -2 -89 -4 -90 -5z"/>
<path d="M10507 2386 c47 -41 58 -70 68 -171 9 -85 38 -145 97 -201 57 -54 98
-78 188 -107 104 -34 150 -42 150 -24 0 8 -24 20 -62 31 -182 51 -286 113
-330 199 -12 24 -25 76 -30 122 -9 81 -23 116 -62 148 -42 35 -60 38 -19 3z"/>
<path d="M12395 2388 c-72 -209 -119 -289 -389 -658 -215 -294 -496 -685 -546
-758 -68 -101 -83 -161 -57 -225 45 -106 172 -165 297 -138 29 6 88 27 132 46
87 38 128 44 149 19 8 -9 17 -53 20 -98 10 -128 58 -204 159 -256 52 -26 107
-38 220 -45 194 -12 248 -17 367 -36 226 -35 437 -94 665 -185 128 -51 141
-54 224 -54 l87 0 -39 31 c-59 47 -244 132 -387 178 -277 90 -415 111 -782
121 -294 7 -322 12 -383 57 -59 44 -82 91 -92 188 -10 94 -26 130 -66 145 -32
13 -60 6 -155 -36 -133 -59 -239 -56 -313 9 -33 28 -39 40 -43 83 -7 65 -2 73
157 299 184 262 527 767 603 887 100 160 162 298 181 401 7 35 0 52 -9 25z"/>
<path d="M5850 2017 c0 -16 32 -46 80 -74 65 -39 185 -63 380 -78 41 -3 98 -8
125 -11 162 -16 672 -1 694 22 16 15 -46 19 -337 20 -180 0 -370 4 -422 8
-308 24 -388 40 -467 92 -34 22 -53 29 -53 21z"/>
<path d="M5916 1761 c10 -9 111 -34 219 -53 110 -20 396 -16 475 6 35 10 75
23 89 30 43 23 7 25 -74 4 -115 -30 -349 -30 -538 0 -152 24 -186 27 -171 13z"/>
<path d="M12308 1628 c-257 -275 -379 -431 -417 -534 -26 -68 -28 -92 -6 -74
8 7 15 18 15 25 0 23 110 187 197 293 70 86 215 258 331 395 8 9 10 17 5 17
-6 0 -62 -55 -125 -122z"/>
<path d="M12028 919 c-57 -22 -25 -33 38 -14 6 2 31 -1 56 -6 57 -12 90 -47
113 -118 36 -109 135 -171 274 -171 131 1 461 58 461 81 0 13 -49 11 -226 -11
-87 -11 -192 -20 -231 -20 -128 0 -205 47 -242 149 -11 31 -34 70 -51 86 -27
26 -39 30 -98 32 -37 1 -79 -2 -94 -8z"/>
<path d="M5620 781 c0 -20 250 -88 420 -116 69 -11 328 -18 376 -9 40 7 15 10
-131 15 -99 4 -229 14 -288 23 -115 18 -324 68 -357 86 -13 7 -20 7 -20 1z"/>
<path d="M9845 628 c-65 -210 -154 -460 -209 -590 l-16 -38 39 0 39 0 37 113
c36 106 135 485 135 514 0 17 -19 17 -25 1z"/>
<path d="M9313 413 c-26 -60 -163 -403 -163 -409 0 -2 6 -4 14 -4 8 0 35 58
69 148 67 174 118 322 111 322 -3 0 -17 -26 -31 -57z"/>
</g>
</svg>
