<?xml version="1.0" standalone="no"?>
<!DOCTYPE svg PUBLIC "-//W3C//DTD SVG 20010904//EN"
 "http://www.w3.org/TR/2001/REC-SVG-20010904/DTD/svg10.dtd">
<svg version="1.0" xmlns="http://www.w3.org/2000/svg"
 width="384.000000pt" height="570.000000pt" viewBox="0 0 384.000000 570.000000"
 preserveAspectRatio="xMidYMid meet">

<g transform="translate(0.000000,570.000000) scale(0.100000,-0.100000)"
fill="#000000" stroke="none">
<path d="M1357 5200 c-14 -11 -35 -40 -46 -63 l-21 -43 20 -79 c11 -43 18 -80
16 -82 -2 -3 -125 56 -155 75 -3 1 -4 24 -2 51 2 58 -11 71 -74 78 -42 5 -46
4 -62 -26 -10 -17 -21 -31 -25 -31 -3 0 -16 16 -27 36 -20 34 -24 36 -57 29
-83 -15 -97 -31 -75 -88 8 -21 3 -28 -54 -69 -85 -62 -99 -85 -85 -136 9 -36
67 -102 88 -102 4 0 42 11 85 25 134 43 229 28 316 -51 68 -61 75 -77 76 -156
0 -63 -1 -67 -33 -88 -46 -32 -174 -164 -226 -233 -56 -76 -120 -197 -156
-294 l-28 -78 -83 -51 c-155 -96 -235 -187 -326 -369 -95 -189 -108 -270 -92
-573 6 -131 10 -271 9 -312 -8 -217 -6 -241 28 -326 18 -45 55 -119 83 -165
28 -46 68 -127 89 -180 20 -54 59 -128 85 -165 102 -144 114 -166 145 -260 46
-136 100 -238 170 -319 34 -38 84 -104 112 -145 158 -231 215 -290 389 -408
100 -68 167 -97 267 -117 70 -14 96 -15 170 -5 110 14 177 44 248 112 78 73
127 146 232 340 107 197 134 240 237 378 109 147 180 295 226 472 26 99 36
296 21 380 -11 54 -9 61 19 124 41 90 59 179 59 297 0 82 3 102 20 125 40 55
61 141 69 279 6 111 10 137 28 160 27 37 47 36 51 -3 5 -50 34 -69 102 -68 49
1 59 -2 63 -17 3 -12 14 -19 27 -19 37 0 99 22 116 41 15 17 22 84 10 96 -3 4
16 30 43 58 45 48 71 101 71 146 0 29 -33 56 -88 74 -43 14 -52 20 -46 34 28
67 28 70 11 105 -16 35 -16 35 10 48 48 23 73 73 73 143 0 73 -25 119 -81 149
l-35 19 -72 -33 c-40 -18 -75 -31 -78 -27 -3 3 2 19 10 36 22 41 20 77 -4 101
-30 30 -67 25 -113 -16 -74 -67 -192 -103 -343 -104 -49 0 -52 2 -65 33 -7 17
-56 75 -109 128 -69 71 -116 108 -173 139 -44 24 -83 53 -89 65 -22 49 56 195
124 232 24 13 55 18 118 18 94 0 150 -21 189 -71 19 -25 25 -26 86 -22 45 3
73 10 92 25 38 27 66 78 58 102 -8 26 -129 148 -167 167 -22 11 -28 20 -22 32
14 33 16 82 4 97 -7 9 -29 15 -54 15 -36 0 -47 -5 -73 -35 -17 -19 -36 -35
-41 -35 -5 0 -12 17 -15 38 -9 54 -28 76 -59 69 -40 -10 -77 -45 -89 -85 -9
-30 -26 -47 -91 -91 -103 -70 -231 -197 -288 -285 -30 -48 -46 -64 -48 -52 -5
25 35 208 66 298 30 90 28 94 -53 133 -66 33 -129 37 -150 10 -59 -75 -98
-202 -116 -372 -6 -65 -17 -134 -24 -153 -12 -34 -13 -34 -19 -10 -3 14 -15
81 -26 150 -29 180 -46 253 -85 360 -73 207 -126 312 -188 378 -36 37 -64 40
-100 12z m93 -92 c0 -11 -81 -50 -88 -43 -3 3 7 17 23 31 l30 25 -32 -16 c-40
-19 -42 -7 -6 35 l27 33 23 -29 c13 -16 23 -32 23 -36z m-485 -63 c40 -59 70
-61 92 -5 21 52 53 56 53 8 0 -62 9 -75 71 -104 50 -24 58 -32 53 -49 -5 -16
-4 -18 7 -7 20 19 31 14 19 -8 -10 -19 -9 -20 8 -9 14 9 25 8 50 -5 54 -28 62
-23 62 42 0 31 -4 71 -9 89 -10 35 -1 48 57 78 32 16 34 15 48 -2 25 -33 28
-56 8 -70 -16 -12 -16 -13 9 -13 26 0 40 -20 15 -20 -19 -1 -102 -40 -96 -45
3 -3 26 4 52 16 26 11 54 18 62 15 25 -9 15 -34 -16 -41 -16 -4 -33 -11 -36
-17 -7 -11 22 -7 60 8 12 5 20 -4 32 -31 8 -20 14 -38 12 -39 -2 -2 -35 -13
-74 -25 -42 -13 -86 -35 -105 -53 -34 -30 -34 -30 -4 -12 68 41 112 58 155 58
35 1 45 -3 48 -16 2 -13 -3 -18 -20 -19 -13 0 -39 -7 -58 -15 -33 -14 -34 -14
-5 -9 17 3 44 8 61 11 28 6 32 3 43 -26 18 -53 15 -57 -42 -64 -84 -11 -92
-26 -10 -19 84 7 72 23 102 -152 12 -70 16 -114 10 -120 -12 -13 -29 12 -29
42 0 72 -88 203 -136 203 -32 0 -99 -26 -140 -54 -21 -14 -41 -23 -44 -21 -4
3 -4 24 0 47 6 32 18 52 46 76 20 17 32 32 26 32 -6 0 -25 -12 -42 -26 -17
-15 -32 -25 -33 -23 -1 2 -12 18 -25 36 -28 40 -28 41 5 75 15 15 22 28 16 28
-7 0 -21 -12 -32 -26 l-20 -26 -43 35 c-24 19 -60 42 -81 51 l-38 15 21 42
c12 22 19 43 16 46 -3 3 -15 -15 -28 -41 -30 -63 -52 -62 -46 4 6 58 -9 57
-18 -1 -6 -38 -9 -40 -33 -34 -14 4 -28 11 -30 16 -1 6 -8 4 -15 -4 -6 -7 -35
-19 -65 -25 -62 -14 -74 -8 -97 47 -14 34 -14 36 8 53 16 12 24 13 27 5 12
-38 32 -79 36 -75 3 3 -2 21 -10 41 -8 20 -15 41 -15 47 0 20 16 10 28 -17
l11 -28 -5 32 c-3 21 0 40 10 54 10 16 12 28 5 46 -13 35 -11 43 9 43 9 0 31
-20 47 -45z m-156 -177 c16 -32 18 -44 8 -50 -19 -12 -25 -10 -41 14 -19 27
-21 64 -3 71 6 3 13 6 13 6 1 1 11 -18 23 -41z m1771 -71 c4 -35 9 -42 28 -41
18 0 22 -5 24 -35 l1 -36 4 33 c3 25 11 35 38 46 18 8 38 24 45 35 6 12 20 21
30 21 24 0 24 0 3 -46 l-18 -37 44 -36 c24 -20 60 -50 80 -68 l36 -31 -46 -46
c-52 -51 -63 -54 -98 -25 l-24 20 33 34 c19 19 31 37 29 40 -3 2 -20 -11 -38
-30 -18 -19 -39 -35 -47 -35 -18 0 -18 3 6 42 11 18 20 40 20 48 0 8 -12 -4
-26 -28 -28 -47 -41 -51 -24 -8 17 47 10 53 -10 9 l-19 -43 -71 0 c-51 0 -70
4 -70 13 0 7 -7 22 -16 33 -16 19 -16 13 1 -29 4 -9 -9 -20 -38 -31 -24 -9
-60 -34 -81 -55 -27 -28 -44 -37 -59 -34 -18 4 -19 3 -7 -6 13 -9 12 -11 -5
-11 -15 0 -17 -2 -6 -9 20 -13 4 -48 -27 -60 -19 -6 -21 -10 -9 -10 30 -1 11
-60 -32 -99 -34 -32 -25 -35 12 -4 9 8 18 13 20 11 1 -2 10 -21 20 -43 15 -31
15 -41 5 -54 -11 -13 -10 -14 9 -4 37 20 38 13 3 -23 -39 -40 -32 -47 12 -10
38 32 44 31 104 -6 87 -55 89 -58 57 -93 -26 -28 -26 -29 -2 -8 14 12 32 22
41 22 15 0 118 -104 118 -119 0 -4 -15 -15 -32 -25 -18 -9 -24 -14 -13 -10 47
15 65 16 65 3 0 -9 -39 -28 -102 -49 -55 -19 -106 -37 -112 -39 -23 -9 19 31
80 76 35 26 62 49 59 51 -6 7 -79 -44 -135 -95 -52 -47 -100 -71 -100 -50 0 6
35 45 77 86 43 41 67 68 53 61 -13 -7 -59 -49 -102 -93 -74 -76 -79 -80 -103
-69 -34 16 -29 33 37 132 41 61 45 70 20 46 -17 -15 -45 -55 -62 -87 -38 -73
-66 -81 -56 -16 4 29 3 38 -4 27 -5 -8 -10 -23 -10 -33 0 -12 -6 -17 -17 -15
-15 3 -17 13 -15 68 2 36 15 99 28 140 13 41 22 76 20 77 -2 2 -12 -18 -24
-44 -22 -52 -42 -147 -42 -200 0 -29 -3 -33 -26 -33 l-26 0 4 89 c1 49 0 87
-4 84 -5 -2 -8 -42 -8 -89 0 -67 -3 -84 -15 -84 -17 0 -23 23 -28 95 -2 35 -4
27 -5 -27 -1 -43 -6 -78 -12 -78 -5 0 -19 18 -30 41 -12 23 -24 39 -26 36 -3
-3 2 -19 10 -36 21 -40 21 -44 -13 -64 l-29 -17 -21 33 c-23 38 -71 85 -71 70
0 -5 9 -18 21 -29 22 -19 53 -73 47 -79 -2 -2 -12 9 -23 26 -29 42 -37 36 -12
-9 l21 -39 -21 -26 -20 -26 -49 50 c-26 27 -53 49 -59 49 -5 0 6 -15 25 -34
57 -53 72 -74 65 -86 -5 -8 -17 -3 -36 16 -16 15 -29 23 -29 17 0 -6 12 -20
26 -30 23 -17 25 -22 15 -42 l-12 -22 -42 34 c-54 43 -110 77 -128 77 -8 0 6
-12 31 -26 25 -14 64 -41 87 -60 35 -28 41 -39 34 -53 -9 -16 -16 -14 -88 21
-102 50 -119 49 -24 -2 90 -48 95 -52 86 -80 -5 -17 -12 -20 -28 -15 -69 21
-150 34 -207 33 -36 0 -51 -3 -35 -5 122 -14 195 -27 223 -38 31 -13 32 -16
32 -69 l0 -56 -52 -1 c-29 -1 -66 -5 -83 -10 -19 -5 -1 -6 52 -3 76 5 82 4 93
-16 6 -12 10 -24 7 -26 -2 -2 -46 -7 -98 -10 -104 -7 -265 -40 -276 -57 -4 -7
0 -8 13 -3 84 32 355 62 340 38 -4 -7 -28 -12 -54 -13 -26 0 -69 -7 -97 -15
l-50 -13 50 5 c28 3 66 7 85 10 l35 6 -40 -28 c-22 -15 -53 -38 -68 -51 -22
-17 -42 -23 -85 -25 -50 -1 -52 -2 -14 -5 23 -2 42 -7 42 -10 0 -19 -38 -43
-69 -44 -31 -2 -32 -3 -8 -6 17 -3 26 -9 23 -16 -2 -7 -16 -38 -29 -70 l-25
-58 -22 36 c-36 59 -60 69 -145 62 -41 -3 -75 -2 -75 3 0 5 15 24 33 43 25 27
44 37 82 42 28 4 59 11 70 16 18 7 18 8 -5 8 -14 0 -43 -4 -65 -9 -22 -5 -41
-7 -43 -5 -2 2 4 17 13 35 9 17 20 50 23 73 l8 42 69 12 c39 7 75 15 80 18 11
6 -59 -1 -118 -11 -38 -7 -39 -6 -35 22 3 32 31 42 125 45 28 1 57 6 65 11 15
11 -127 1 -172 -12 -26 -7 -50 2 -50 21 0 12 94 31 195 39 l100 7 -85 1 c-47
1 -112 -5 -145 -13 -33 -8 -64 -14 -68 -15 -17 0 6 21 36 35 l32 15 -31 -6
c-27 -4 -32 -1 -38 18 -11 41 -7 47 37 51 40 3 40 4 -10 5 -58 2 -61 6 -42 63
20 59 27 62 115 49 44 -6 88 -14 99 -17 14 -4 17 -2 10 5 -5 6 -50 16 -100 23
-49 7 -92 14 -94 16 -2 1 4 21 14 43 21 47 38 50 144 25 35 -9 66 -13 68 -11
9 9 -101 36 -144 36 -24 0 -43 3 -43 6 0 3 8 19 17 35 21 35 42 36 120 9 31
-11 59 -18 61 -15 8 7 -69 37 -111 43 -28 3 -37 9 -35 21 5 27 37 24 105 -9
35 -18 66 -30 69 -27 6 6 -111 67 -130 67 -25 0 -19 13 23 54 l40 39 48 -28
c26 -16 59 -36 72 -47 26 -19 46 -24 36 -8 -10 16 11 12 25 -5 7 -8 17 -15 22
-15 16 0 -6 23 -44 44 -31 19 -32 19 -18 1 17 -21 9 -19 -43 14 -26 16 -34 26
-26 31 8 6 5 12 -11 20 l-24 13 35 18 c19 10 41 18 51 19 9 0 44 -23 77 -51
34 -28 58 -44 55 -35 -3 8 -31 34 -61 57 -51 40 -54 44 -36 56 46 34 64 29
121 -33 30 -32 49 -48 42 -36 -6 13 -28 42 -48 64 l-36 40 24 20 25 20 32 -38
c18 -20 33 -32 33 -26 0 6 -12 24 -26 41 -14 17 -21 31 -16 31 6 0 22 -15 36
-32 14 -18 26 -29 26 -24 0 5 -12 24 -26 43 -23 31 -25 37 -14 64 7 16 18 29
24 29 28 -1 100 -43 146 -86 27 -26 50 -42 50 -37 0 20 -93 95 -147 119 -47
21 -54 28 -50 47 3 12 11 63 17 112 6 50 15 94 20 99 10 10 114 -19 128 -37
13 -15 4 -87 -10 -87 -5 0 -25 7 -45 15 -53 22 -52 10 1 -14 54 -23 63 -47 10
-25 -41 17 -37 1 5 -21 18 -9 30 -25 34 -45 8 -36 30 -47 61 -30 20 10 28 9
50 -5 15 -10 29 -15 32 -12 3 3 -8 13 -25 23 -17 10 -31 21 -31 25 0 14 30 31
45 25 8 -3 15 -1 15 4 0 5 -7 10 -15 12 -12 2 -7 15 21 58 71 107 97 124 158
100 40 -15 31 -1 -11 18 -32 13 -35 17 -17 20 12 2 38 -4 58 -12 20 -8 36 -11
36 -7 0 10 -45 31 -66 31 -9 0 -14 6 -11 13 2 6 16 12 30 12 20 -1 24 2 15 13
-12 14 -11 15 36 51 l29 22 35 -33 c36 -34 35 -21 0 19 l-20 21 42 28 42 28
24 -29 c27 -34 32 -27 8 10 -19 29 -13 78 13 107 21 23 25 18 33 -35z m-531
-21 c27 -14 32 -22 27 -41 -14 -55 -26 -77 -41 -71 -8 3 -15 1 -15 -3 0 -5 5
-11 11 -13 17 -6 -3 -94 -22 -91 -8 1 -27 5 -44 8 -25 5 -23 3 13 -14 23 -11
42 -25 42 -32 0 -7 -7 -8 -17 -4 -53 23 -91 34 -111 35 -21 0 -23 4 -20 38 3
35 5 37 43 42 34 5 37 7 18 13 -13 5 -27 5 -33 2 -12 -8 -13 25 -1 44 6 9 18
11 36 7 17 -4 24 -3 20 4 -3 5 -12 10 -20 10 -8 0 -17 5 -21 12 -7 12 30 7 70
-8 13 -5 17 -4 13 4 -4 6 -21 13 -37 17 -31 7 -41 32 -16 41 8 3 28 -2 46 -11
17 -9 36 -15 42 -13 6 2 -8 12 -31 22 -22 11 -41 23 -41 27 0 10 46 -3 89 -25z
m861 -199 c0 -7 -7 -23 -16 -35 -8 -12 -11 -22 -7 -22 5 0 14 10 21 21 9 14
17 18 24 11 13 -13 -9 -47 -39 -61 -24 -11 -93 -15 -93 -6 0 7 93 101 103 103
4 1 7 -4 7 -11z m-1331 -100 c19 -52 27 -122 21 -187 -2 -19 -6 6 -10 55 -5
66 -14 106 -33 149 -16 35 -21 54 -12 46 8 -6 23 -35 34 -63z m-32 -27 c-2 14
-7 34 -11 45 -3 11 3 0 15 -24 13 -28 22 -68 24 -115 2 -59 2 -63 -4 -21 l-7
50 -5 -40 c-3 -22 -7 -33 -11 -25 -14 38 -42 137 -43 152 0 9 -3 20 -7 24 -5
4 -8 17 -7 28 0 13 11 -1 31 -39 16 -33 28 -49 25 -35z m-114 18 c9 -96 33
-160 76 -210 l40 -45 -45 -48 c-24 -27 -46 -47 -48 -44 -2 2 -16 24 -30 49
-14 25 -26 39 -26 31 0 -8 12 -34 26 -59 16 -27 21 -43 13 -40 -8 2 -30 32
-49 66 -19 34 -38 62 -43 62 -10 0 17 -52 55 -108 25 -36 27 -43 13 -48 -9 -4
-17 -5 -19 -3 -30 43 -46 59 -46 50 0 -7 11 -27 25 -46 l26 -33 -24 -28 c-13
-15 -29 -24 -34 -21 -19 12 -80 111 -98 161 -11 27 -20 45 -22 39 -7 -20 39
-118 79 -171 40 -54 45 -80 8 -47 -24 21 -27 9 -4 -16 16 -18 11 -59 -7 -59
-6 0 -26 12 -45 26 -44 34 -44 20 1 -20 l34 -31 -27 -58 c-27 -57 -27 -57 -49
-42 -13 9 -23 27 -23 41 0 24 14 32 25 14 3 -5 11 -10 17 -10 6 0 2 10 -9 23
-14 14 -24 42 -28 82 -4 33 -11 77 -17 99 -9 35 -12 38 -38 32 -26 -5 -32 0
-69 55 -31 46 -38 65 -31 78 11 22 40 46 40 34 0 -5 7 -18 16 -29 15 -18 15
-18 5 3 -6 12 -11 31 -11 42 0 37 19 32 40 -10 12 -22 24 -39 26 -36 3 3 -2
19 -10 36 -27 51 -20 72 37 127 53 51 130 114 140 114 4 0 9 -17 13 -37 11
-62 25 -74 18 -16 -4 29 -3 60 0 70 12 30 26 -5 26 -63 0 -47 28 -160 37 -151
2 2 -3 30 -12 63 -25 97 -17 194 16 194 3 0 9 -28 12 -62z m93 -122 l4 -31
-15 34 c-9 18 -18 47 -21 65 l-4 31 15 -34 c9 -18 18 -47 21 -65z m169 -8 c14
-66 11 -81 -19 -89 -28 -8 -28 -8 -22 29 3 20 6 47 6 60 0 13 6 22 15 22 8 0
17 -10 20 -22z m20 -107 c5 -9 -145 -94 -153 -87 -2 2 22 25 53 50 55 44 87
56 100 37z m-651 -132 c37 -50 42 -84 10 -77 -27 5 -77 83 -69 107 3 12 10 21
14 21 3 0 24 -23 45 -51z m-45 -44 c18 -25 29 -49 26 -55 -9 -15 -127 -82
-133 -75 -3 3 3 27 14 53 15 34 25 46 38 44 14 -3 16 0 8 14 -7 12 -6 26 1 41
5 13 11 23 12 23 1 0 16 -20 34 -45z m506 -25 c3 -6 -1 -7 -9 -4 -18 7 -21 14
-7 14 6 0 13 -4 16 -10z m1658 -36 c13 -5 11 -16 -14 -67 -27 -58 -32 -63 -71
-70 -51 -10 -60 -17 -48 -36 13 -21 90 -15 174 14 40 14 76 25 79 25 13 0 7
-28 -8 -43 -11 -12 -12 -17 -2 -20 19 -8 -9 -24 -93 -52 -41 -13 -65 -24 -53
-25 12 0 53 11 90 25 37 13 69 22 72 19 8 -8 -13 -23 -54 -39 -41 -15 -39 -15
45 1 20 4 28 0 38 -22 6 -16 12 -31 12 -35 0 -19 -303 -117 -585 -188 -184
-47 -281 -91 -346 -155 -50 -49 -97 -131 -124 -216 -27 -85 -70 -163 -125
-229 -59 -71 -89 -132 -90 -179 0 -52 31 -38 56 26 11 29 43 80 71 115 64 79
107 155 137 243 46 137 101 211 198 268 54 31 350 110 383 102 16 -4 25 -1 29
11 6 14 9 14 22 -6 20 -28 11 -55 -16 -48 -11 3 -20 0 -20 -6 0 -6 -7 -2 -16
9 -15 18 -15 18 -9 -3 8 -30 -35 -54 -60 -33 -17 14 -21 0 -5 -16 8 -8 6 -15
-5 -24 -14 -12 -20 -12 -38 0 -20 12 -21 12 -9 -3 12 -14 9 -22 -22 -60 -38
-46 -46 -77 -21 -77 8 0 46 29 85 64 81 74 129 96 276 123 105 19 180 23 229
11 25 -6 24 -4 -10 12 l-40 20 40 -5 c68 -10 135 -35 135 -52 0 -15 -8 -15
-55 2 -11 4 -5 -2 12 -14 21 -13 31 -26 27 -36 -3 -8 -10 -12 -15 -9 -5 3 -6
-1 -4 -8 3 -8 -6 -25 -20 -38 l-25 -24 -33 32 c-35 34 -67 42 -67 17 0 -8 13
-34 30 -56 29 -41 46 -95 38 -121 -3 -7 -14 7 -25 32 -12 25 -28 54 -37 65
-10 11 -6 -3 9 -32 25 -52 36 -106 15 -73 -6 10 -10 11 -10 3 0 -28 -17 -10
-27 30 -15 54 -77 137 -103 137 -29 0 -25 -24 15 -82 37 -54 40 -78 5 -37 -20
22 -20 22 -11 2 6 -12 11 -24 11 -27 0 -9 -24 -2 -32 9 -5 6 -8 5 -8 -2 0 -7
-4 -13 -10 -13 -5 0 -10 9 -10 20 0 12 -7 34 -15 50 -12 24 -22 30 -48 30 -76
0 -116 -69 -117 -200 0 -85 -17 -188 -40 -245 l-12 -30 -13 29 c-10 24 -9 40
6 99 11 39 18 84 18 101 -1 20 -3 24 -6 11 -21 -104 -37 -154 -45 -149 -5 3
-7 29 -5 57 2 29 2 40 0 25 -7 -46 -20 -32 -50 53 -27 78 -30 83 -72 102 -31
13 -56 18 -85 14 -43 -6 -64 -26 -73 -69 -4 -21 -11 -28 -29 -28 -59 0 -105
-31 -150 -102 -26 -40 -58 -77 -76 -86 -17 -9 -45 -29 -61 -43 -28 -24 -31
-32 -37 -115 -4 -53 -16 -113 -30 -149 -12 -33 -40 -114 -62 -180 -59 -178
-58 -176 -111 -232 -60 -64 -125 -106 -202 -133 -76 -26 -93 -25 -127 7 -23
22 -28 35 -28 77 0 83 -15 117 -77 176 -35 34 -50 45 -40 28 10 -16 15 -28 12
-28 -16 0 -63 32 -89 59 -17 17 -39 31 -50 30 -15 0 -16 -2 -6 -6 8 -3 33 -22
55 -43 22 -21 59 -44 82 -51 68 -19 87 -48 93 -135 l5 -75 -25 6 c-13 4 -49
11 -80 17 -63 11 -97 27 -124 57 -11 12 -24 21 -29 21 -17 0 43 -58 72 -69 14
-6 56 -17 93 -25 43 -8 82 -24 105 -42 20 -15 52 -30 71 -33 l34 -6 -42 -47
c-39 -45 -45 -48 -90 -48 -27 0 -86 9 -132 20 -112 27 -145 26 -196 -7 -59
-39 -52 -49 8 -11 l49 31 93 -17 c50 -9 95 -19 100 -22 20 -13 -66 -125 -115
-151 -16 -8 -27 -17 -24 -20 3 -2 27 8 53 23 30 18 46 23 42 14 -20 -50 -21
-53 -10 -47 10 7 24 45 36 97 9 42 42 70 82 70 51 0 98 26 127 69 19 29 36 41
67 49 48 12 48 23 1 -106 -42 -113 -55 -135 -115 -201 -30 -32 -73 -95 -96
-140 -34 -64 -55 -91 -95 -122 -28 -21 -60 -39 -69 -39 -34 0 -74 30 -105 78
-36 56 -153 172 -173 172 -7 0 -2 -9 12 -20 l25 -20 -45 5 c-45 6 -45 6 19
-19 35 -13 73 -34 85 -45 20 -21 20 -21 1 -22 -13 -1 -10 -4 10 -10 17 -5 38
-22 49 -39 l18 -32 -30 16 c-23 12 -56 16 -124 14 l-93 -1 97 -7 c90 -6 102
-9 150 -42 29 -20 63 -39 75 -42 26 -8 71 13 131 62 l44 35 -21 -41 c-12 -23
-37 -54 -56 -69 -59 -46 -68 -69 -75 -173 -6 -98 -31 -170 -72 -207 -22 -19
-24 -41 -3 -23 21 18 26 10 36 -57 l8 -58 -3 73 c-3 65 0 79 24 124 l28 51 12
-44 c6 -24 13 -48 16 -54 6 -15 -6 93 -13 113 -12 31 37 -19 58 -61 22 -41 34
-49 23 -14 l-6 22 26 -24 c28 -27 48 -83 39 -109 -3 -9 -3 -14 2 -10 4 4 14 3
22 -3 17 -15 17 -10 -8 56 -15 40 -33 65 -66 92 -68 56 -103 108 -103 155 0
51 21 98 56 128 47 40 79 89 120 185 30 69 54 105 106 161 75 81 86 100 117
199 29 91 48 120 124 192 114 108 122 121 171 275 25 79 51 150 57 158 9 13
10 12 5 -3 -3 -11 -8 -31 -11 -45 -4 -22 -2 -21 11 8 9 19 19 29 21 23 3 -7
-9 -36 -25 -65 -17 -29 -40 -88 -52 -132 -27 -102 -39 -123 -109 -198 -89 -97
-117 -142 -151 -243 -32 -95 -64 -147 -122 -197 -17 -15 -29 -30 -26 -34 10
-9 90 69 118 115 14 22 28 41 31 41 4 0 5 -39 2 -87 -4 -75 -11 -101 -43 -173
-22 -47 -42 -95 -45 -108 -4 -12 -16 -32 -28 -43 l-22 -21 23 7 c26 8 26 9 7
-46 -14 -39 -14 -42 -1 -29 9 8 22 50 30 92 8 42 27 100 42 130 15 29 32 70
39 92 l11 38 13 -69 c13 -66 12 -72 -13 -145 -14 -42 -25 -91 -25 -110 1 -31
2 -30 11 12 5 25 19 69 30 99 12 29 21 67 22 82 1 16 4 29 8 29 15 0 38 -60
38 -97 0 -21 5 -45 11 -53 8 -11 9 -7 5 19 -3 18 -6 46 -6 61 0 15 -15 45 -34
71 -39 49 -56 123 -56 241 0 93 29 153 124 258 43 47 85 97 94 113 9 15 20 27
24 27 4 0 23 -17 43 -37 34 -38 34 -39 37 -138 1 -66 3 -80 5 -40 3 66 11 110
18 103 3 -3 19 -45 36 -93 l30 -89 -25 -66 c-14 -36 -28 -86 -31 -112 -5 -37
-12 -51 -33 -64 -23 -13 -91 -94 -79 -94 2 0 31 27 65 60 50 48 62 66 62 90 0
42 14 30 29 -22 11 -40 10 -49 -18 -120 -17 -42 -31 -91 -30 -110 1 -31 2 -30
10 10 4 24 20 68 34 99 29 64 30 89 6 158 -17 48 -17 52 1 105 11 32 17 69 14
88 -5 35 4 39 49 22 32 -12 41 -35 57 -152 7 -51 18 -92 23 -91 6 1 15 -8 22
-20 21 -38 14 2 -8 45 -11 22 -23 66 -26 97 -7 61 -26 115 -45 127 -7 4 -28
10 -48 14 -32 5 -37 10 -61 70 -14 36 -40 88 -57 115 -39 62 -31 73 14 20 90
-105 100 -113 143 -125 25 -6 61 -23 80 -37 l36 -26 -37 37 c-21 20 -47 36
-58 36 -36 0 -77 28 -113 77 -20 26 -54 65 -76 86 -24 22 -41 48 -41 60 0 56
60 217 81 217 4 0 6 -7 3 -15 -5 -11 -2 -14 12 -9 16 6 17 5 7 -7 -18 -18 -16
-34 2 -19 12 10 18 3 38 -42 31 -69 57 -92 103 -90 l36 1 -6 -62 c-3 -41 -2
-53 3 -37 5 14 9 44 10 66 1 24 7 47 16 54 13 11 15 7 17 -21 l1 -34 4 33 c5
37 13 40 37 13 10 -10 32 -22 51 -25 29 -6 34 -11 38 -39 4 -31 4 -31 5 6 l2
38 31 -23 31 -23 -5 -95 c-7 -106 -32 -215 -77 -334 -17 -43 -29 -81 -26 -83
7 -8 84 200 96 262 7 33 15 103 19 155 5 79 9 95 24 98 15 3 17 -7 18 -85 l2
-88 8 80 c5 44 10 87 12 95 8 34 19 -165 13 -227 -17 -161 -107 -411 -192
-528 -23 -33 -72 -100 -108 -150 -65 -90 -108 -163 -207 -350 -104 -198 -194
-305 -296 -353 -54 -25 -67 -27 -193 -26 -159 0 -167 3 -334 114 -115 76 -204
153 -235 204 -11 17 -23 54 -27 81 -10 71 -26 103 -18 38 3 -29 4 -53 1 -53
-3 0 -12 21 -20 48 -9 26 -43 97 -76 157 -33 61 -67 135 -75 165 -13 49 -15
51 -15 20 0 -43 17 -84 93 -223 32 -60 56 -110 54 -113 -3 -2 -25 26 -50 63
-25 38 -77 106 -116 152 -78 91 -87 113 -108 234 l-13 82 4 -68 c2 -37 3 -67
1 -67 -2 0 -21 51 -42 113 -28 81 -54 135 -96 196 -51 75 -58 92 -64 151 -3
36 -12 79 -20 95 -8 17 -12 21 -9 10 4 -11 8 -49 11 -85 l5 -65 -25 45 c-14
25 -34 73 -46 106 -11 34 -37 88 -56 120 -91 150 -152 302 -139 344 9 29 25
24 25 -7 0 -50 28 -135 61 -187 18 -28 43 -70 57 -94 13 -24 26 -41 29 -38 6
6 -29 73 -61 115 -35 47 -65 131 -72 200 -5 48 -3 59 15 75 17 15 23 16 35 6
26 -21 28 -48 7 -79 -12 -16 -21 -40 -20 -53 0 -20 2 -19 12 9 18 49 31 53 21
8 -4 -22 -8 -51 -7 -65 0 -28 40 -126 48 -118 3 3 -4 27 -16 54 -15 36 -19 60
-15 92 3 23 9 62 12 87 4 27 2 56 -6 74 -11 28 -10 32 23 65 24 24 42 57 58
108 27 83 56 109 140 127 61 13 117 41 163 81 42 37 46 37 46 1 0 -34 -72
-137 -119 -170 -17 -13 -29 -26 -26 -31 2 -4 -5 -20 -16 -34 -19 -24 -21 -35
-15 -86 4 -38 3 -67 -4 -81 -7 -11 -9 -23 -7 -26 3 -3 13 9 22 26 13 25 14 39
5 69 -5 20 -10 44 -10 53 0 9 36 57 81 107 l81 91 35 -36 c35 -34 35 -36 30
-96 -3 -34 -8 -73 -12 -87 -3 -17 0 -14 11 10 9 19 17 61 18 93 1 53 -2 61
-28 83 -26 23 -28 30 -30 103 -1 60 1 75 10 63 10 -14 17 -14 69 1 71 20 99
38 128 82 38 60 116 82 177 50 32 -17 53 -51 65 -103 4 -19 27 -63 51 -98 79
-116 71 -158 -43 -235 -41 -28 -77 -57 -80 -65 -3 -8 -25 -28 -49 -45 -24 -16
-49 -40 -55 -52 -12 -21 19 2 100 74 l24 21 -7 -23 c-4 -13 -9 -51 -11 -84
l-5 -60 14 70 c19 98 31 118 98 167 71 51 78 62 78 123 0 42 2 46 20 41 11 -3
29 -9 40 -12 10 -3 38 -26 60 -51 22 -26 56 -57 75 -70 33 -22 35 -27 35 -79
0 -31 6 -64 15 -77 11 -17 12 -32 5 -62 -15 -64 -11 -97 5 -40 8 28 14 54 15
58 0 17 21 -6 45 -51 13 -26 24 -41 25 -34 0 23 -49 110 -75 130 -23 18 -25
26 -25 96 l0 76 44 0 c42 0 48 -4 111 -72 37 -40 62 -62 55 -50 -6 13 -10 26
-7 28 8 8 55 -36 77 -72 30 -48 36 -37 8 14 -14 25 -39 50 -63 63 -22 12 -59
40 -83 63 l-43 41 -83 -3 -83 -2 -32 41 c-38 47 -86 79 -118 79 -16 0 -34 17
-63 59 -22 33 -40 64 -39 68 0 4 13 18 29 31 26 21 33 22 74 11 60 -15 96 -9
182 31 82 38 120 36 130 -6 5 -19 -2 -38 -28 -77 -37 -55 -52 -87 -40 -87 4 0
15 17 24 38 10 20 29 51 42 67 l25 30 14 -34 c9 -22 13 -58 11 -100 l-3 -66 8
53 c5 29 12 56 15 60 4 3 18 -7 32 -23 23 -27 24 -28 13 -5 -6 14 -21 36 -34
50 -12 14 -36 51 -53 83 l-30 57 35 0 c19 0 44 5 55 11 15 8 37 8 83 -1 70
-13 109 -1 139 42 24 33 12 33 -22 -2 -21 -21 -40 -30 -63 -30 -30 0 -31 1
-17 18 31 36 31 46 -1 20 -23 -20 -44 -28 -72 -28 l-39 0 0 55 c0 31 7 69 16
86 8 17 13 33 11 36 -11 10 -38 -47 -46 -97 -5 -28 -15 -58 -22 -66 -8 -7 -41
-19 -74 -25 -33 -6 -86 -25 -117 -42 -47 -26 -62 -29 -84 -22 -32 12 -96 98
-88 119 8 20 90 88 154 126 107 64 160 131 160 200 0 34 -25 101 -42 111 -14
9 -2 42 15 37 6 -3 23 -24 36 -48 25 -45 34 -143 18 -205 l-7 -30 14 30 c24
49 20 144 -9 200 -13 27 -22 52 -19 56 2 4 -1 11 -7 15 -8 5 -9 3 -4 -6 5 -8
4 -11 -3 -6 -10 6 -6 36 4 36 2 0 17 -19 34 -42 16 -22 30 -37 30 -33 0 13
-41 75 -55 83 -9 4 -11 12 -6 21 16 26 89 -55 116 -129 27 -72 33 -61 10 17
-11 36 -28 62 -60 92 -25 23 -45 44 -45 48 0 15 45 53 62 53 10 0 68 -25 128
-56 61 -32 113 -55 115 -52 3 3 -47 32 -112 64 -65 33 -120 60 -122 62 -2 1
-1 5 3 9 4 4 26 0 49 -8 79 -30 82 -30 27 0 -62 34 -50 40 25 12 119 -45 262
-33 450 39 109 41 176 54 350 65 55 4 115 13 134 21 18 8 50 14 70 14 27 0 32
3 21 10 -12 8 -9 10 13 10 18 0 26 4 21 11 -5 8 41 69 52 69 1 0 9 -3 17 -6z
m-2108 -65 c-22 -22 -60 -53 -84 -70 -25 -16 -38 -29 -29 -29 21 0 86 49 130
98 21 23 40 42 43 42 13 0 4 -142 -12 -174 -16 -35 -16 -35 16 -72 30 -33 32
-41 26 -81 -5 -38 -3 -48 19 -74 22 -25 26 -41 26 -89 0 -32 5 -62 10 -65 19
-12 10 -20 -42 -39 -29 -10 -48 -21 -41 -23 7 -2 21 0 32 6 11 6 34 11 51 11
31 0 31 0 28 -47 -3 -45 -5 -48 -36 -54 -18 -4 -36 -10 -40 -14 -4 -4 8 -4 26
0 20 4 32 3 32 -4 0 -6 -13 -11 -30 -11 -31 0 -145 -39 -137 -47 3 -2 34 6 70
19 36 12 69 20 72 16 4 -4 -9 -33 -28 -65 -20 -32 -41 -78 -47 -103 -13 -47
-26 -70 -42 -70 -5 0 -6 6 -2 13 4 6 -3 2 -15 -10 -27 -29 -46 -31 -31 -4 17
33 11 34 -16 2 -14 -18 -35 -36 -47 -42 -14 -8 -9 2 16 33 44 54 50 79 7 28
l-30 -35 2 37 c2 43 -13 67 -29 46 -6 -7 -18 -37 -27 -65 -13 -40 -30 -64 -69
-98 -58 -50 -73 -52 -32 -3 31 36 75 128 75 156 0 9 -16 -17 -35 -57 -35 -73
-74 -128 -101 -144 -9 -5 -7 4 6 25 31 50 24 56 -10 9 -20 -27 -47 -49 -76
-62 -25 -10 -47 -19 -49 -19 -2 0 12 32 32 70 19 39 33 73 30 76 -3 3 -18 -21
-33 -53 l-29 -58 -5 89 c-4 68 -8 86 -16 75 -20 -25 -33 -81 -50 -214 -23
-180 -33 -194 -33 -49 -1 98 4 140 24 220 29 113 29 118 10 84 -26 -48 -47
-184 -50 -319 -3 -127 -4 -136 -26 -154 -21 -17 -23 -17 -32 -1 -5 9 -7 70 -5
136 3 81 1 113 -6 101 -5 -10 -9 -75 -9 -145 0 -109 -2 -129 -17 -143 -17 -15
-18 -7 -24 177 -13 383 -12 468 6 536 39 138 67 194 137 266 60 63 68 82 14
33 -13 -11 -23 -16 -23 -10 0 13 94 100 156 144 24 18 42 34 40 37 -5 4 -88
-50 -125 -82 l-25 -21 23 32 c32 46 90 91 221 169 63 37 153 91 200 120 47 29
89 53 95 53 5 1 -9 -17 -30 -40z m2335 -76 c18 -23 21 -38 18 -81 -6 -71 -20
-83 -47 -39 -14 23 -21 51 -21 84 0 71 14 81 50 36z m-1263 -59 c-3 -3 -12 -4
-19 -1 -8 3 -5 6 6 6 11 1 17 -2 13 -5z m-936 -32 c16 -14 20 -24 15 -38 -7
-18 -8 -18 -18 1 -6 11 -18 28 -26 38 -20 23 0 22 29 -1z m2138 -190 c7 -14 6
-25 -6 -42 l-16 -22 -19 31 c-11 17 -17 35 -13 41 10 16 44 11 54 -8z m-60
-28 c30 -38 26 -49 -21 -67 -79 -29 -88 -30 -95 -11 -6 15 -7 15 -14 -3 -7
-20 -60 -36 -86 -26 -15 6 -18 33 -4 33 5 0 7 8 4 18 -3 14 7 22 44 35 57 20
80 21 86 5 3 -7 6 -4 7 7 l1 20 16 -20 c14 -18 15 -18 9 -2 -14 43 22 50 53
11z m-231 -69 c-3 -3 -9 2 -12 12 -6 14 -5 15 5 6 7 -7 10 -15 7 -18z m-16
-11 c10 -21 9 -27 -3 -35 -8 -5 -17 -9 -21 -9 -10 0 -37 58 -30 64 14 15 44 4
54 -20z m-1233 -42 c1 -13 -3 -20 -9 -17 -5 3 -10 23 -9 43 0 30 2 33 9 17 5
-11 9 -30 9 -43z m-244 -391 c13 -22 32 -44 42 -50 33 -18 4 -24 -57 -10 -33
7 -60 16 -60 20 0 17 31 79 40 79 5 0 21 -18 35 -39z m1149 -23 c4 -18 26 -87
51 -153 24 -66 47 -138 52 -160 6 -35 7 -37 11 -13 3 24 -22 102 -85 272 -7
22 -13 49 -11 60 5 38 118 -259 129 -343 11 -79 5 -226 -12 -264 -7 -18 -8
-15 -4 13 4 26 -2 17 -20 -30 -14 -36 -39 -82 -56 -102 -16 -21 -25 -38 -20
-38 6 0 26 24 46 52 37 56 46 58 19 5 -22 -44 -64 -87 -85 -87 -10 0 -29 15
-43 33 -23 28 -28 31 -46 20 -29 -19 -48 -16 -65 11 -24 36 -39 38 -92 10 -26
-13 -54 -24 -61 -24 -7 0 -28 33 -47 73 -23 52 -45 83 -74 106 -26 21 -41 41
-41 54 1 32 35 102 57 118 11 8 25 24 32 37 16 30 -8 40 -43 17 -24 -16 -26
-16 -26 -1 0 17 27 76 34 76 3 0 11 3 20 6 11 4 16 0 17 -12 1 -16 2 -16 6 -2
2 9 20 33 39 53 32 34 34 35 35 13 0 -13 8 2 16 32 13 48 40 96 49 87 2 -1 -3
-21 -11 -42 -8 -22 -14 -53 -13 -70 0 -21 4 -13 14 29 8 32 22 68 31 80 14 20
15 20 9 1 -4 -11 -9 -33 -12 -50 -4 -26 -2 -25 11 9 16 41 33 66 45 66 4 0 12
-18 19 -40 21 -72 57 -43 45 37 -10 69 0 93 40 93 30 0 34 -4 40 -32z m-514
-911 c0 -5 -7 -4 -15 3 -8 7 -15 20 -15 29 1 13 3 13 15 -3 8 -11 15 -24 15
-29z"/>
<path d="M790 4841 c0 -5 5 -13 10 -16 6 -3 10 -2 10 4 0 5 -4 13 -10 16 -5 3
-10 2 -10 -4z"/>
<path d="M1960 4166 c45 -47 57 -56 44 -33 -13 23 -49 59 -69 69 -11 6 0 -10
25 -36z"/>
<path d="M2344 4119 c-10 -17 13 -36 27 -22 12 12 4 33 -11 33 -5 0 -12 -5
-16 -11z"/>
<path d="M1870 4105 c1 -16 39 -82 40 -68 0 7 -9 27 -20 45 -11 18 -20 29 -20
23z"/>
<path d="M2244 4019 c-14 -28 -23 -53 -20 -56 5 -5 30 39 46 82 16 42 2 28
-26 -26z"/>
<path d="M1846 4003 c-11 -11 -6 -23 9 -23 8 0 15 4 15 9 0 13 -16 22 -24 14z"/>
<path d="M2346 3933 c-25 -32 -46 -62 -46 -67 0 -5 2 -7 4 -5 40 45 96 122 93
126 -3 2 -26 -22 -51 -54z"/>
<path d="M1484 3634 c49 -13 91 -23 93 -21 5 6 -139 47 -162 46 -11 0 20 -11
69 -25z"/>
<path d="M1421 3526 c2 -2 49 -6 103 -9 62 -3 94 -2 85 4 -13 8 -198 14 -188
5z"/>
<path d="M1237 4343 c-10 -9 -9 -53 1 -53 20 0 45 28 39 44 -6 16 -28 22 -40
9z"/>
<path d="M1250 4260 c0 -5 4 -10 9 -10 6 0 13 5 16 10 3 6 -1 10 -9 10 -9 0
-16 -4 -16 -10z"/>
<path d="M1211 4115 c0 -5 8 -26 19 -45 11 -19 19 -30 19 -25 0 6 -8 26 -19
45 -11 19 -19 31 -19 25z"/>
<path d="M2550 3789 c-47 -17 -103 -38 -125 -46 -22 -8 -67 -17 -100 -20 -70
-7 -109 -22 -55 -23 56 0 167 27 228 56 32 14 95 34 142 44 75 16 80 19 40 19
-26 0 -80 -12 -130 -30z"/>
<path d="M2923 3803 c9 -2 23 -2 30 0 6 3 -1 5 -18 5 -16 0 -22 -2 -12 -5z"/>
<path d="M3125 3775 c-39 -14 -40 -14 -5 -8 41 7 82 22 60 22 -8 0 -33 -7 -55
-14z"/>
<path d="M2640 3764 c-35 -8 -69 -19 -75 -26 -7 -8 -5 -9 10 -4 46 16 119 28
231 35 l119 8 -110 1 c-60 0 -139 -6 -175 -14z"/>
<path d="M2142 3689 c27 -15 163 -39 216 -38 36 1 24 4 -48 15 -52 7 -111 18
-130 23 -44 14 -60 14 -38 0z"/>
<path d="M2891 3691 c-14 -9 -9 -41 8 -41 13 0 23 32 14 41 -5 5 -14 4 -22 0z"/>
<path d="M2738 3683 c-16 -2 -28 -8 -28 -13 0 -8 67 4 77 14 7 6 -2 6 -49 -1z"/>
<path d="M3170 3634 c-84 -27 -110 -30 -65 -8 34 16 28 16 -75 -7 -46 -10 -51
-13 -30 -19 19 -5 1 -11 -68 -24 -51 -10 -91 -21 -88 -23 14 -15 365 68 416
97 27 17 -9 10 -90 -16z m-107 -31 c-7 -2 -19 -2 -25 0 -7 3 -2 5 12 5 14 0
19 -2 13 -5z"/>
<path d="M2650 3638 c-61 -17 -56 -28 6 -12 77 20 84 22 54 22 -14 0 -41 -4
-60 -10z"/>
<path d="M1984 3586 c39 -52 51 -103 44 -196 -2 -33 -2 -58 0 -55 13 13 20
113 11 158 -9 50 -54 127 -78 135 -7 2 3 -17 23 -42z"/>
<path d="M2303 3613 c9 -2 25 -2 35 0 9 3 1 5 -18 5 -19 0 -27 -2 -17 -5z"/>
<path d="M2483 3543 c9 -2 23 -2 30 0 6 3 -1 5 -18 5 -16 0 -22 -2 -12 -5z"/>
<path d="M2405 3520 c-3 -6 1 -7 9 -4 18 7 21 14 7 14 -6 0 -13 -4 -16 -10z"/>
<path d="M2460 3493 c-55 -29 -180 -141 -180 -162 0 -7 30 19 68 57 41 41 90
79 125 96 31 16 57 30 57 32 0 9 -19 2 -70 -23z"/>
<path d="M2619 3500 c-25 -4 -69 -20 -99 -35 -68 -34 -196 -163 -234 -235 -34
-65 -26 -58 37 32 54 76 151 166 214 198 23 12 69 24 101 27 63 6 108 23 57
22 -16 -1 -51 -5 -76 -9z"/>
<path d="M2287 3442 c-40 -44 -85 -112 -73 -112 3 0 18 19 35 43 16 24 46 60
67 80 21 20 34 37 28 37 -6 0 -32 -22 -57 -48z"/>
<path d="M2245 3450 c-10 -11 -16 -22 -13 -25 3 -3 13 6 22 20 20 30 16 32 -9
5z"/>
<path d="M2057 3389 c-4 -41 -9 -85 -12 -99 -5 -19 -4 -21 4 -9 16 24 33 148
23 165 -6 11 -11 -8 -15 -57z"/>
<path d="M1861 3366 c-7 -32 -30 -81 -58 -122 -25 -38 -38 -62 -28 -54 36 30
93 129 100 176 9 64 1 65 -14 0z"/>
<path d="M3265 3351 c28 -10 59 -22 69 -26 15 -6 17 -5 11 5 -6 10 -4 12 9 7
11 -4 15 -3 11 4 -4 6 -13 8 -21 5 -7 -3 -29 1 -48 9 -20 8 -46 15 -58 15 -14
-1 -4 -7 27 -19z"/>
<path d="M1961 3353 c-1 -6 -4 -20 -7 -30 -5 -17 -5 -17 6 0 6 10 9 23 6 30
-3 9 -5 9 -5 0z"/>
<path d="M3105 3354 c-65 -15 -137 -39 -145 -49 -5 -6 21 -1 58 12 72 24 163
30 208 13 32 -12 44 -6 17 9 -23 12 -110 22 -138 15z"/>
<path d="M1961 3299 c-7 -12 -10 -23 -8 -26 3 -3 11 5 17 17 15 28 8 35 -9 9z"/>
<path d="M3038 3273 c7 -3 16 -2 19 1 4 3 -2 6 -13 5 -11 0 -14 -3 -6 -6z"/>
<path d="M2490 3254 c-11 -12 -10 -18 4 -32 16 -16 18 -16 31 2 11 14 12 23 4
33 -15 17 -24 16 -39 -3z"/>
<path d="M2993 3240 c-18 -10 -39 -33 -48 -50 -23 -45 -12 -48 14 -5 13 23 36
43 63 55 28 12 36 19 23 19 -11 1 -34 -8 -52 -19z"/>
<path d="M1800 3195 c-7 -9 -11 -17 -9 -20 3 -2 10 5 17 15 14 24 10 26 -8 5z"/>
<path d="M2450 3140 c0 -5 5 -10 10 -10 6 0 10 5 10 10 0 6 -4 10 -10 10 -5 0
-10 -4 -10 -10z"/>
<path d="M2130 2949 c-8 -19 -21 -45 -29 -59 -9 -13 -16 -34 -16 -47 -1 -21 0
-21 17 -6 10 9 17 22 14 29 -2 6 5 30 16 53 11 22 18 46 16 52 -2 7 -10 -3
-18 -22z"/>
<path d="M1540 2905 c0 -9 5 -15 11 -13 6 2 11 8 11 13 0 5 -5 11 -11 13 -6 2
-11 -4 -11 -13z"/>
<path d="M1570 2849 c0 -5 5 -7 10 -4 6 3 10 8 10 11 0 2 -4 4 -10 4 -5 0 -10
-5 -10 -11z"/>
<path d="M709 2742 c-30 -15 -64 -43 -76 -61 -33 -49 -28 -61 5 -15 16 22 50
50 78 64 62 31 58 29 52 35 -3 3 -29 -7 -59 -23z"/>
<path d="M659 2653 c-30 -36 -69 -103 -60 -103 5 0 20 17 32 38 13 20 29 47
37 60 17 26 11 29 -9 5z"/>
<path d="M758 2643 c-20 -23 -48 -78 -48 -95 0 -7 -14 -40 -30 -73 -31 -62
-39 -137 -19 -180 6 -13 7 1 3 43 -5 56 -3 69 25 126 17 36 31 70 31 76 0 17
30 72 53 98 11 12 16 22 10 22 -5 0 -17 -8 -25 -17z"/>
<path d="M917 2485 c3 -22 10 -51 14 -65 l7 -25 0 25 c0 14 -6 43 -13 65 l-14
40 6 -40z"/>
<path d="M2156 2468 c-8 -13 -28 -62 -45 -110 -17 -48 -38 -102 -46 -119 -9
-17 -14 -33 -11 -36 7 -7 30 42 65 139 16 48 37 101 46 118 18 35 12 40 -9 8z"/>
<path d="M951 2414 c0 -11 3 -14 6 -6 3 7 2 16 -1 19 -3 4 -6 -2 -5 -13z"/>
<path d="M1102 2388 c2 -12 10 -23 18 -23 22 0 19 39 -3 43 -15 3 -18 -1 -15
-20z"/>
<path d="M1070 2310 c0 -5 5 -10 10 -10 6 0 10 5 10 10 0 6 -4 10 -10 10 -5 0
-10 -4 -10 -10z"/>
<path d="M951 2284 c0 -11 3 -14 6 -6 3 7 2 16 -1 19 -3 4 -6 -2 -5 -13z"/>
<path d="M2030 2225 c-7 -9 -10 -18 -7 -21 3 -3 10 4 17 15 13 25 8 27 -10 6z"/>
<path d="M768 2100 c30 -54 30 -58 35 -220 3 -141 7 -174 27 -225 12 -33 27
-64 33 -70 7 -7 7 -4 2 10 -34 87 -46 161 -52 305 -6 160 -17 206 -59 241 -10
9 -5 -7 14 -41z"/>
<path d="M835 2088 c14 -29 25 -60 25 -68 0 -8 5 -22 10 -30 7 -11 8 -5 4 20
-8 39 -42 117 -55 126 -5 2 3 -19 16 -48z"/>
<path d="M587 2076 c10 -25 19 -43 21 -41 6 6 -18 74 -28 80 -5 3 -2 -14 7
-39z"/>
<path d="M2626 2018 c-4 -29 -16 -93 -27 -141 -12 -49 -19 -91 -16 -93 3 -3
15 37 27 88 22 95 37 198 28 198 -3 0 -8 -24 -12 -52z"/>
<path d="M745 1950 c3 -25 10 -94 15 -155 8 -86 16 -121 37 -162 34 -69 41
-62 8 9 -20 44 -27 82 -35 180 -5 68 -14 135 -20 149 -8 20 -9 16 -5 -21z"/>
<path d="M921 1974 c0 -11 3 -14 6 -6 3 7 2 16 -1 19 -3 4 -6 -2 -5 -13z"/>
<path d="M1136 1930 c8 -43 14 -51 14 -19 0 13 -5 31 -10 39 -7 11 -8 5 -4
-20z"/>
<path d="M688 1944 c-5 -4 -8 -18 -8 -30 0 -27 21 -127 25 -122 2 2 0 38 -3
81 -4 44 -10 75 -14 71z"/>
<path d="M2741 1869 c-18 -88 -66 -219 -106 -288 -38 -65 -45 -87 -16 -50 50
64 120 246 136 352 10 68 0 58 -14 -14z"/>
<path d="M2072 1877 c-22 -26 -18 -67 6 -67 40 0 57 51 23 69 -13 8 -22 7 -29
-2z"/>
<path d="M2557 1818 c-9 -39 -16 -73 -13 -75 6 -6 39 123 35 136 -2 6 -12 -22
-22 -61z"/>
<path d="M2002 1806 c1 -10 8 -17 13 -17 15 1 12 24 -3 29 -9 3 -13 -2 -10
-12z"/>
<path d="M2030 1720 c0 -5 7 -10 15 -10 8 0 15 5 15 10 0 6 -7 10 -15 10 -8 0
-15 -4 -15 -10z"/>
<path d="M876 1675 c10 -16 31 -54 46 -84 16 -30 28 -49 28 -42 0 18 -46 103
-70 131 l-22 25 18 -30z"/>
<path d="M1051 1664 c0 -11 3 -14 6 -6 3 7 2 16 -1 19 -3 4 -6 -2 -5 -13z"/>
<path d="M1081 1654 c0 -11 3 -14 6 -6 3 7 2 16 -1 19 -3 4 -6 -2 -5 -13z"/>
<path d="M2461 1574 c0 -11 3 -14 6 -6 3 7 2 16 -1 19 -3 4 -6 -2 -5 -13z"/>
<path d="M2427 1455 c-24 -50 -20 -58 4 -12 11 22 19 41 17 43 -3 2 -12 -12
-21 -31z"/>
<path d="M2381 1413 c-10 -26 -10 -27 4 -9 8 11 15 23 15 28 0 15 -7 8 -19
-19z"/>
<path d="M2493 1346 c-95 -130 -264 -418 -252 -430 2 -3 26 36 53 86 59 111
155 264 213 341 24 33 42 61 39 64 -2 3 -27 -25 -53 -61z"/>
<path d="M951 1359 c-1 -40 25 -135 39 -144 6 -4 5 5 -1 22 -6 15 -17 57 -24
93 -10 51 -13 57 -14 29z"/>
<path d="M2131 1344 c0 -11 3 -14 6 -6 3 7 2 16 -1 19 -3 4 -6 -2 -5 -13z"/>
<path d="M2100 1315 c-7 -20 -10 -39 -7 -42 3 -3 10 12 16 33 14 49 7 56 -9 9z"/>
<path d="M1082 1265 c0 -16 2 -22 5 -12 2 9 2 23 0 30 -3 6 -5 -1 -5 -18z"/>
<path d="M2197 1238 c-11 -29 -44 -93 -74 -143 -31 -49 -65 -106 -75 -125
l-20 -35 21 24 c61 68 176 285 169 317 -2 9 -11 -8 -21 -38z"/>
<path d="M1111 1244 c0 -11 3 -14 6 -6 3 7 2 16 -1 19 -3 4 -6 -2 -5 -13z"/>
<path d="M2312 1128 c-15 -20 -119 -218 -137 -263 -30 -72 0 -23 79 128 71
136 84 167 58 135z"/>
<path d="M1277 1084 c-8 -8 1 -24 14 -24 5 0 9 7 9 15 0 15 -12 20 -23 9z"/>
<path d="M2171 1038 c-13 -40 -106 -168 -121 -168 -16 0 -12 12 13 39 12 14
-3 4 -33 -21 -30 -25 -71 -55 -90 -67 -19 -11 -30 -21 -24 -21 7 0 36 16 64
35 29 20 55 33 57 31 6 -5 -109 -92 -150 -113 -16 -8 -26 -17 -23 -20 6 -7 61
26 144 86 89 64 192 205 179 244 -2 7 -9 -5 -16 -25z"/>
<path d="M2036 1010 c-15 -27 -25 -50 -23 -50 8 0 59 91 54 96 -2 2 -16 -18
-31 -46z"/>
<path d="M1840 880 c-20 -6 -21 -8 -5 -8 11 0 29 3 40 8 25 11 -1 11 -35 0z"/>
<path d="M1905 873 c-21 -12 -53 -17 -105 -16 -53 1 -66 -1 -45 -7 56 -14 115
-10 155 10 37 19 50 31 33 30 -5 -1 -21 -8 -38 -17z"/>
<path d="M2178 796 c-69 -95 -128 -155 -183 -186 -59 -34 -71 -45 -29 -30 68
26 171 126 239 233 31 48 11 37 -27 -17z"/>
<path d="M1491 763 c-6 -12 -6 -25 -1 -34 12 -19 45 1 45 27 0 25 -31 30 -44
7z"/>
<path d="M1984 731 c-65 -60 -152 -91 -262 -92 -76 -1 -76 -1 -32 -11 93 -21
247 30 319 106 51 53 34 51 -25 -3z"/>
<path d="M1580 740 c0 -5 5 -10 10 -10 6 0 10 5 10 10 0 6 -4 10 -10 10 -5 0
-10 -4 -10 -10z"/>
<path d="M1897 708 c-22 -10 -64 -24 -95 -29 -75 -14 -82 -24 -12 -15 58 8
133 36 144 55 8 13 11 14 -37 -11z"/>
<path d="M1972 634 c-12 -8 -46 -24 -75 -34 -28 -10 -43 -19 -32 -19 21 -1
145 54 145 64 0 9 -15 5 -38 -11z"/>
<path d="M1743 603 c9 -2 25 -2 35 0 9 3 1 5 -18 5 -19 0 -27 -2 -17 -5z"/>
<path d="M1848 553 c6 -2 18 -2 25 0 6 3 1 5 -13 5 -14 0 -19 -2 -12 -5z"/>
<path d="M1019 3763 c-13 -16 -12 -17 4 -4 9 7 17 15 17 17 0 8 -8 3 -21 -13z"/>
<path d="M974 3748 l-19 -23 23 19 c21 18 27 26 19 26 -2 0 -12 -10 -23 -22z"/>
<path d="M827 3754 c-4 -4 -7 -16 -7 -26 0 -14 6 -19 23 -16 14 2 22 10 22 23
0 20 -25 32 -38 19z"/>
<path d="M1058 3647 c-14 -18 -65 -66 -114 -107 -170 -142 -236 -216 -284
-323 -36 -79 -20 -72 20 8 51 102 103 161 250 285 107 90 169 155 158 165 -2
2 -15 -10 -30 -28z"/>
<path d="M801 3644 c0 -11 3 -14 6 -6 3 7 2 16 -1 19 -3 4 -6 -2 -5 -13z"/>
<path d="M924 3618 l-19 -23 23 19 c21 18 27 26 19 26 -2 0 -12 -10 -23 -22z"/>
<path d="M902 3558 c-114 -108 -202 -198 -202 -208 0 -5 33 24 73 63 40 40
106 105 147 145 41 39 71 72 67 72 -5 0 -43 -33 -85 -72z"/>
<path d="M1073 3564 l-28 -25 33 22 c17 13 32 24 32 26 0 8 -11 1 -37 -23z"/>
<path d="M1045 3450 c-36 -18 -95 -64 -95 -75 0 -2 25 13 57 35 31 22 62 40
69 40 7 0 16 5 19 10 9 15 -6 12 -50 -10z"/>
<path d="M1080 3429 c-24 -11 -59 -31 -76 -44 -35 -27 -109 -123 -101 -131 2
-3 21 18 42 46 48 65 90 97 168 126 39 14 53 23 37 23 -14 0 -45 -9 -70 -20z"/>
<path d="M516 3400 c-20 -22 -36 -43 -36 -47 0 -10 60 49 71 70 15 27 4 20
-35 -23z"/>
<path d="M498 3343 c-9 -10 -20 -27 -26 -39 -17 -33 -54 -130 -47 -123 6 7 94
179 90 179 -1 0 -9 -8 -17 -17z"/>
<path d="M580 3325 c0 -8 7 -15 15 -15 8 0 15 7 15 15 0 8 -7 15 -15 15 -8 0
-15 -7 -15 -15z"/>
<path d="M1121 3305 c-30 -14 -52 -28 -49 -31 3 -3 23 4 44 14 22 10 50 24 64
30 14 6 18 11 10 11 -8 1 -39 -10 -69 -24z"/>
<path d="M466 3153 c-6 -14 -5 -15 5 -6 7 7 10 15 7 18 -3 3 -9 -2 -12 -12z"/>
<path d="M502 3096 c-25 -55 -56 -179 -50 -198 3 -7 13 23 22 66 10 44 27 99
37 124 11 25 18 47 15 49 -2 3 -13 -16 -24 -41z"/>
<path d="M821 3033 c-1 -6 -4 -20 -7 -30 -5 -17 -5 -17 6 0 6 10 9 23 6 30 -3
9 -5 9 -5 0z"/>
<path d="M662 2973 c-15 -48 -8 -55 8 -8 7 20 10 38 8 41 -3 2 -10 -13 -16
-33z"/>
<path d="M421 2964 c-14 -54 -34 -211 -28 -226 2 -7 7 14 11 47 4 33 14 93 22
134 15 79 12 109 -5 45z"/>
<path d="M2720 2888 c0 -2 10 -28 21 -58 15 -37 23 -88 27 -155 4 -79 7 -94
14 -70 5 17 6 55 3 85 -7 61 -43 188 -56 196 -5 3 -9 4 -9 2z"/>
<path d="M2490 2676 c78 -29 77 -29 50 -7 -14 11 -38 20 -55 20 l-30 0 35 -13z"/>
<path d="M2382 2668 c-14 -14 -16 -44 -3 -52 5 -3 11 9 14 27 6 38 4 40 -11
25z"/>
<path d="M2341 2604 c0 -11 3 -14 6 -6 3 7 2 16 -1 19 -3 4 -6 -2 -5 -13z"/>
<path d="M2410 2575 c7 -8 20 -15 28 -15 13 0 12 3 -4 15 -25 19 -40 19 -24 0z"/>
<path d="M2294 2546 c-8 -33 -2 -58 16 -64 13 -5 13 -3 1 11 -8 11 -11 28 -7
47 7 36 -1 41 -10 6z"/>
<path d="M2370 2566 c0 -4 15 -15 33 -26 38 -24 92 -25 127 -4 18 11 19 13 5
9 -59 -19 -83 -16 -157 23 -5 2 -8 1 -8 -2z"/>
<path d="M2575 2480 c-40 -42 -106 -72 -142 -65 -27 5 -27 5 -5 -6 17 -9 31
-9 61 -1 39 12 131 85 120 96 -3 3 -18 -8 -34 -24z"/>
<path d="M2750 2466 c-6 -18 -26 -59 -46 -92 -20 -33 -27 -51 -16 -41 23 21
67 102 76 140 9 38 0 34 -14 -7z"/>
<path d="M2596 2384 c-21 -24 -34 -44 -28 -44 9 0 82 75 82 85 0 13 -18 -1
-54 -41z"/>
<path d="M2525 2398 c-11 -7 -38 -15 -60 -19 l-40 -6 40 -2 c25 0 51 7 70 19
32 21 24 27 -10 8z"/>
<path d="M2655 2343 l-17 -28 23 22 c12 12 20 25 17 28 -3 3 -13 -7 -23 -22z"/>
<path d="M2760 2320 c-12 -16 -19 -30 -16 -30 2 0 14 14 26 30 12 17 19 30 16
30 -2 0 -14 -13 -26 -30z"/>
<path d="M2421 2314 c6 -7 17 -10 25 -7 20 7 18 10 -11 15 -20 4 -23 2 -14 -8z"/>
</g>
</svg>
